<svg width="128" height="128" viewBox="0 0 128 128" fill="none" xmlns="http://www.w3.org/2000/svg">
<g clip-path="url(#clip0_444_1989)">
<path d="M125.846 64.9235C124 66.462 123.693 64.3081 123.385 63.6928C122.769 61.8466 121.231 61.5389 120 61.2312C117.231 60.6158 115.077 59.0774 112.616 57.5389C112 56.9235 112.923 56.6158 112.616 56.0005C111.385 56.6158 110.769 56.3081 110.462 55.0774C110.154 54.462 109.539 53.8466 108.923 53.5389C104.923 51.0774 101.231 48.0005 98.154 44.3081C96.3079 42.1543 94.4617 40.3081 92.6156 38.1543C91.6925 36.9235 90.4617 35.6928 89.231 35.0774C87.6925 34.462 88.0002 32.9235 87.0771 32.0005C84.9233 29.5389 83.0771 27.0774 80.3079 25.2312C77.8464 23.6928 75.0771 22.7697 72.3079 21.8466C71.3848 21.5389 70.7694 20.6158 70.154 20.0005C69.8464 20.3081 69.8464 20.9235 68.9233 20.9235C67.6925 20.9235 65.8464 21.2312 64.9233 22.7697C64.0002 24.3081 61.8464 23.3851 60.3079 24.0005C60.0002 24.3081 59.0771 23.3851 59.3848 24.6158C59.3848 24.9235 58.7694 25.2312 58.4617 24.6158C57.8464 24.0005 57.5387 24.3081 57.231 24.3081C56.6156 24.6158 56.9233 24.9235 57.231 25.2312C57.5387 26.462 56.6156 26.462 56.0002 25.8466C55.0771 25.2312 54.4617 25.5389 53.5387 25.8466C51.6925 26.462 49.5387 27.0774 47.6925 27.6928C45.5387 28.6158 43.6925 29.5389 42.154 30.7697C41.231 31.3851 40.3079 31.3851 39.6925 32.6158C39.3848 33.5389 38.154 32.0005 37.8464 32.9235C37.5387 33.8466 36.9233 34.1543 36.0002 33.5389C37.231 34.462 37.8464 34.7697 36.3079 35.6928C34.7694 36.9235 33.231 38.462 32.0002 40.0005C31.0771 40.9235 30.154 41.8466 28.9233 42.462C28.0002 42.7697 28.6156 43.6928 28.0002 44.0005C26.4617 45.2312 25.5387 47.0774 23.3848 47.6928C22.154 48.3081 21.8464 48.9235 21.5387 49.5389C21.231 50.1543 20.6156 50.462 20.0002 50.7697C17.231 52.3081 14.154 53.5389 11.3848 55.3851C11.0771 55.6928 10.7694 55.6928 10.7694 55.3851C8.92327 54.1543 8.61558 56.6158 7.38481 56.9235C8.30789 57.8466 6.46174 58.462 6.76943 59.3851C7.07712 60.0005 7.6925 60.3081 8.61558 60.6158C9.84635 60.9235 10.4617 61.8466 12.0002 61.8466C13.5387 61.8466 15.0771 61.2312 16.3079 60.6158C18.7694 59.6928 20.9233 57.5389 23.6925 58.462H24.0002C24.9233 56.9235 26.154 56.3081 27.3848 55.0774C28.0002 54.7697 27.3848 53.2312 28.9233 53.8466C28.9233 53.8466 29.231 53.8466 29.231 53.5389C29.231 51.6928 30.7694 52.0005 31.6925 51.6928C32.6156 51.3851 32.9233 50.462 33.231 49.8466C33.8464 48.9235 34.4617 48.9235 35.3848 49.2312C35.6925 49.5389 36.3079 49.8466 36.6156 50.1543C37.5387 51.0774 37.231 51.6928 36.3079 52.3081C33.231 54.7697 30.154 56.9235 26.7694 59.0774C24.9233 60.3081 23.0771 61.8466 21.231 63.3851C20.6156 64.0005 19.6925 64.0005 19.0771 64.6158C16.6156 66.462 13.8464 66.7697 11.0771 67.0774C8.61558 67.3851 3.38481 64.9235 2.15404 61.2312C1.84635 60.6158 1.84635 60.0005 1.23097 59.6928C0.30789 59.0774 -0.92288 59.0774 0.30789 57.5389C0.30789 57.5389 0.30789 57.5389 0.30789 57.2312C-0.615187 52.3081 -0.615187 52.0005 3.69251 50.7697C6.76943 49.8466 9.23097 48.0005 12.3079 47.0774C14.7694 46.462 15.3848 44.0005 17.5387 43.0774C18.4617 42.462 19.3848 41.5389 20.6156 41.2312C20.9233 41.2312 20.9233 41.2312 21.231 40.6158C21.5387 40.3081 22.7694 40.0005 24.0002 39.6928C25.231 39.6928 26.154 39.6928 25.5387 38.1543C25.231 37.8466 25.5387 37.2312 26.4617 37.5389C28.0002 38.1543 28.6156 37.5389 28.6156 35.6928C29.231 35.3851 29.5387 36.0005 29.8463 36.0005C30.4617 36.3081 30.7694 36.0005 31.0771 35.6928C31.3848 35.0774 31.0771 35.0774 30.7694 34.7697C30.4617 34.462 29.8464 34.7697 30.154 34.1543C30.4617 33.5389 30.7694 33.2312 31.6925 33.2312C32.9233 33.2312 33.8464 32.3081 34.7694 31.6928C35.3848 31.3851 35.3848 30.1543 36.3079 29.8466C37.231 29.5389 38.4617 29.5389 38.154 28.0005C38.154 28.0005 38.4617 27.6928 38.7694 27.6928C40.3079 27.6928 40.9233 26.1543 42.154 25.5389C42.4617 25.5389 42.7694 24.9235 42.7694 24.9235C44.6156 25.5389 45.5387 24.0005 47.0771 23.3851C48.6156 22.7697 50.4617 22.1543 52.3079 22.1543C55.0771 21.8466 58.4617 20.9235 61.231 19.3851C62.154 18.7697 63.0771 19.0774 63.6925 18.7697C64.9233 18.462 65.8464 17.8466 66.7694 16.9235C67.3848 16.3081 67.6925 16.0005 68.6156 16.3081C69.231 16.6158 69.5387 16.0005 69.231 15.3851C68.9233 14.462 69.231 13.8466 70.154 13.8466C71.0771 13.8466 71.3848 13.2312 72.0002 12.9235C73.231 12.0005 74.154 12.9235 74.154 13.5389C74.154 15.0774 75.3848 15.0774 76.0002 15.6928C76.0002 15.3851 76.0002 15.0774 76.0002 15.0774C76.3079 14.462 74.4617 13.8466 75.6925 13.2312C77.5387 11.6928 80.0002 12.0005 80.6156 12.9235C80.9233 13.2312 80.9233 13.5389 80.6156 13.8466C79.6925 14.1543 80.0002 15.6928 78.7694 15.3851C78.4617 15.3851 78.154 15.0774 77.8464 15.3851C79.0771 16.6158 76.9233 18.1543 77.8464 19.6928C77.8464 20.0005 77.8464 20.3081 78.154 20.3081C80.3079 20.6158 81.231 22.462 82.4617 24.0005C83.3848 25.2312 84.0002 26.7697 85.5387 26.7697C85.8464 26.7697 86.154 27.0774 86.154 27.0774C86.7694 29.8466 90.7694 29.8466 91.0771 32.9235C91.0771 33.5389 91.3848 32.9235 91.6925 32.9235C92.3079 32.9235 92.9233 33.2312 92.9233 33.8466C92.6156 34.7697 93.231 35.0774 94.154 35.0774C94.4617 35.0774 94.7694 34.7697 94.7694 35.3851C94.154 36.6158 96.0002 36.6158 96.6156 37.5389C97.5387 38.1543 98.4617 38.7697 98.4617 40.0005C98.4617 41.8466 99.3848 42.462 101.231 41.8466C101.231 43.3851 101.846 44.3081 103.077 44.9235C103.385 44.9235 103.693 45.2312 103.693 45.5389C104.308 46.462 104.308 48.0005 105.539 46.1543C106.154 46.7697 107.385 46.7697 107.385 48.0005C107.385 48.9235 107.385 49.2312 108.308 49.2312C108.923 49.2312 109.231 49.5389 109.539 49.8466C111.385 51.6928 113.539 53.5389 116 54.462C116.308 54.462 116.308 54.7697 116.308 54.7697C116.616 56.6158 118.462 57.2312 119.693 57.8466C121.539 58.462 121.846 60.9235 124 60.9235C124.308 60.9235 124.308 61.8466 124.616 62.1543C124.923 62.462 124 63.6928 125.539 63.0774C126.154 62.7697 126.154 64.3081 125.846 64.9235Z" fill="#23201F"/>
<path d="M41.8464 76.6161C42.7694 76.6161 43.0771 77.2315 44.0002 77.2315C45.5387 77.2315 45.5387 75.693 46.4617 75.0776C47.0771 74.7699 47.0771 74.1545 48.3079 74.1545C49.5387 74.1545 50.154 72.9238 51.0771 72.6161C52.9233 72.0007 54.7694 70.7699 56.6156 72.3084C58.4617 70.7699 60.3079 72.3084 62.1541 72.0007C66.4617 71.3853 70.4617 72.3084 74.1541 73.8469C75.0771 74.1545 76.0002 75.0776 76.3079 76.0007C76.6156 77.2315 77.231 77.8468 78.4617 77.5392C79.3848 77.2315 78.7694 76.0007 79.0771 75.3853C79.3848 73.5392 79.3848 71.693 79.6925 69.5392C79.6925 68.3084 79.6925 67.0776 80.9233 66.4622C80.0002 65.2315 80.6156 63.693 80.9233 62.4622C80.9233 61.8468 81.231 59.693 81.8464 59.0776C80.3079 57.5392 82.7694 56.3084 82.1541 54.7699C82.1541 54.4622 82.1541 54.4622 82.1541 54.1545C82.7694 52.3084 83.0771 50.4622 84.0002 48.9238C84.6156 48.0007 84.9233 48.0007 83.6925 47.693C83.3848 47.693 83.3848 46.7699 83.3848 46.4622C83.3848 45.5392 84.0002 44.9238 83.3848 44.0007C83.3848 43.693 83.6925 43.0776 84.3079 43.3853C84.9233 43.693 85.231 42.7699 84.9233 42.7699C83.6925 41.8468 84.9233 41.5392 85.231 41.2315C85.8464 40.6161 86.1541 41.2315 86.4617 41.8468C91.0771 46.1545 95.3848 50.7699 100 55.0776C102.769 57.5392 105.231 60.3084 108.616 61.5392C109.846 61.8468 111.077 62.7699 112.616 64.0007C109.539 63.3853 107.385 62.1545 105.231 60.6161C104 59.693 102.462 59.0776 101.231 57.8468C100.616 57.2315 100 56.3084 98.7694 57.5392C98.4617 57.8468 97.8464 57.5392 97.5387 57.2315C97.231 56.6161 96.6156 56.3084 95.6925 56.3084C96.0002 57.2315 97.231 57.8468 95.6925 58.7699C95.3848 59.0776 97.231 61.5392 97.8464 61.5392C98.154 61.5392 98.4617 61.2315 98.4617 61.5392C99.6925 63.3853 102.462 63.0776 103.693 64.9238C104 65.5392 104.923 65.8468 105.539 65.8468C107.693 65.8468 109.231 67.693 111.385 67.3853C111.693 67.3853 112 68.0007 112.308 68.3084C112.308 68.6161 112.616 68.9238 112.923 68.6161C114.462 67.693 115.385 68.9238 116.923 68.9238C117.231 68.9238 117.846 68.9238 117.846 68.9238C119.385 67.693 119.693 69.2315 120.616 69.8468C118.769 70.7699 116.923 70.1545 115.077 69.8468C112.308 69.5392 109.846 68.3084 107.077 67.3853C106.154 67.0776 105.539 65.8468 104.616 67.0776C104.616 67.0776 104.308 67.0776 104 66.7699C101.846 64.9238 98.7694 64.9238 96.9233 62.7699C96.9233 62.4622 96.6156 62.4622 96.3079 62.4622C94.7694 62.1545 94.4617 62.1545 93.231 60.9238C92.6156 60.3084 91.6925 60.6161 91.0771 60.3084C90.1541 60.0007 89.5387 60.0007 89.5387 58.7699C89.5387 58.1545 88.9233 57.2315 88.0002 57.5392C87.0771 57.8468 86.154 57.5392 85.8464 56.3084C85.8464 56.0007 85.5387 55.693 85.231 55.693C84.6156 56.0007 84.9233 56.3084 84.9233 56.6161C84.9233 60.0007 84.0002 63.3853 83.3848 66.4622C82.7694 70.1545 81.5387 74.1545 80.9233 77.8468C80.6156 80.0007 79.6925 82.1545 78.7694 84.3084C78.7694 84.3084 78.4617 84.6161 78.7694 84.6161C80.0002 86.1545 78.7694 87.3853 78.154 88.3084C76.3079 91.0776 74.1541 93.8468 71.3848 96.0007C69.8464 97.2315 67.6925 98.1545 68.0002 100.616C68.3079 102.77 68.3079 105.231 67.6925 107.385C67.6925 110.462 66.7694 112.308 65.5387 113.539C64.9233 114.155 64.3079 115.693 62.7694 115.078C62.4617 116.001 61.231 115.385 60.9233 116.308C60.6156 116.924 60.6156 116.616 60.3079 116.308C60.0002 115.385 59.6925 116.001 59.6925 116.308C59.6925 117.847 58.7694 116.616 58.4617 116.924C58.4617 115.693 57.8464 116.308 57.231 116.616C56.6156 116.924 56.3079 116.924 56.3079 116.001C56.3079 115.078 56.3079 114.155 55.0771 113.847C54.154 113.539 53.5387 112.616 53.231 111.693C52.6156 109.231 51.0771 107.078 51.3848 104.616C51.3848 103.385 50.7694 102.77 49.8464 102.155C45.8464 99.3853 43.3848 95.3853 41.8464 91.0776C41.8464 90.7699 41.8464 90.4622 41.231 90.4622C40.0002 92.0007 41.5387 93.8468 41.231 95.3853C39.6925 94.4622 38.7694 92.3084 39.6925 90.7699C40.6156 88.9238 40.6156 86.7699 40.3079 84.9238C40.3079 84.0007 40.6156 83.693 40.9233 83.0776C41.231 82.1545 42.154 81.5392 41.231 80.3084C41.231 80.3084 41.231 79.693 41.5387 79.693C42.4617 78.7699 42.154 77.5392 41.8464 76.6161ZM53.231 73.8469C52.9233 74.4622 53.5387 75.3853 53.231 76.0007C53.231 76.3084 52.9233 76.9238 52.6156 76.3084C52.3079 75.0776 52.3079 76.0007 52.0002 76.3084C51.0771 76.6161 51.0771 78.1545 50.154 78.1545C47.6925 77.8468 47.6925 81.5392 45.231 80.9238C44.9233 80.9238 44.9233 81.2315 44.9233 81.5392C44.9233 82.1545 44.6156 82.4622 44.3079 82.7699C42.4617 84.6161 42.154 88.0007 43.6925 90.1545C44.6156 91.3853 45.5387 92.9238 45.8464 94.1545C46.4617 96.0007 48.0002 96.6161 49.231 97.8468C49.8464 98.4622 51.3848 99.3853 51.6925 99.0776C53.231 97.8468 55.0771 99.0776 56.6156 98.4622C57.5387 97.8468 58.7694 97.5392 59.6925 98.1545C60.0002 98.4622 60.6156 98.1545 61.231 97.8468C62.4617 97.2315 63.6925 96.6161 64.9233 96.3084C66.7694 95.3853 68.3079 94.7699 69.8464 93.2315C70.4617 92.6161 71.6925 91.693 72.6156 91.693C74.1541 92.0007 74.4617 91.0776 74.7694 89.8468C74.7694 89.5392 74.7694 89.2315 75.0771 88.9238C76.3079 87.693 76.3079 86.1545 76.3079 84.6161C76.6156 82.4622 75.6925 80.6161 74.7694 79.3853C73.8464 78.1545 73.5387 75.3853 70.7694 76.9238C70.154 75.693 68.9233 76.0007 67.6925 75.693C63.3848 74.4622 59.0771 74.4622 54.7694 75.693C53.5387 76.0007 53.8464 75.0776 53.231 73.8469ZM62.7694 101.847C63.3848 101.847 64.6156 100.924 64.9233 102.462C64.9233 102.77 65.231 103.693 65.8464 103.385C66.7694 103.078 65.8464 102.155 66.4617 101.847C65.8464 101.539 65.8464 99.693 64.3079 100.924C64.0002 101.231 63.3848 101.231 62.7694 100.924C61.8464 100.616 61.8464 100.924 61.8464 101.847C61.5387 103.385 62.1541 105.231 62.1541 106.77C62.1541 107.385 61.8464 108.001 61.231 108.308C60.9233 108.616 60.3079 108.616 60.3079 108.308C59.6925 107.385 59.0771 106.155 58.154 105.539C57.5387 104.924 57.5387 104.308 57.231 103.385C57.231 102.77 53.5387 102.462 53.231 102.77C52.9233 103.078 52.9233 103.385 53.231 103.693C53.8464 105.539 53.8464 107.078 54.7694 108.924C55.3848 110.462 56.6156 111.078 57.5387 111.078C59.3848 111.078 61.231 111.078 62.4617 108.924C62.7694 108.616 63.0771 108.308 63.6925 108.616C64.0002 108.924 64.0002 109.231 64.3079 108.924C64.6156 108.616 64.6156 108.308 64.0002 108.308C63.3848 108.308 63.3848 108.001 63.3848 107.385C63.6925 106.77 64.0002 107.693 64.3079 107.385C64.9233 106.77 66.154 107.385 66.154 106.462C66.154 105.847 66.154 104.308 64.6156 104.616L64.3079 104.308C64.9233 102.462 63.3848 102.77 62.7694 101.847ZM95.6925 57.8468C94.4617 57.8468 94.4617 56.6161 93.231 57.2315C92.6156 57.5392 92.6156 58.1545 92.9233 59.3853C93.231 57.5392 94.4617 58.7699 95.6925 57.8468Z" fill="#23201F"/>
<path d="M36.9232 50.4616C36.6155 50.1539 36.0001 49.8463 35.6924 49.5386C35.077 48.6155 35.6924 48.0001 36.3078 47.6924C40.0001 46.7693 42.1539 44.0001 44.3078 41.2309C45.2309 40.0001 46.1539 38.7693 47.6924 40.3078C47.6924 40.3078 48.0001 40.3078 48.3078 40.3078C48.9232 40.0001 49.5386 40.0001 49.5386 40.9232C49.5386 42.1539 48.6155 41.2309 48.0001 41.2309C49.8462 44.0001 47.6924 46.1539 47.3847 48.9232C47.077 50.1539 46.4616 51.6924 46.7693 53.2309C46.7693 54.7693 45.8462 56.0001 45.5386 57.2309C45.2309 58.1539 45.8462 59.6924 45.5386 61.2309C44.6155 64.3078 43.6924 67.3847 43.3847 70.1539C43.077 72.3078 41.5386 74.1539 42.4616 76.3078C41.8462 76.3078 42.1539 77.5386 41.2309 77.5386C40.9232 76.9232 40.0001 76.3078 41.2309 75.077C41.8462 74.4616 41.2309 73.5386 40.6155 72.9232C40.0001 72.0001 38.4616 71.3847 40.0001 69.8463C40.3078 69.5386 39.6924 69.2309 39.6924 68.9232C39.6924 68.3078 39.077 67.3847 40.0001 66.7693C40.6155 66.4616 40.3078 65.5386 40.0001 64.9232C39.6924 64.3078 39.6924 64.0001 40.0001 63.6924C40.3078 63.077 40.6155 63.077 39.6924 62.7693C39.077 62.7693 39.6924 62.1539 39.6924 61.8463C40.6155 60.9232 40.6155 59.6924 41.2309 58.7693C41.5386 58.1539 41.8462 57.5386 40.6155 57.5386C40.0001 57.5386 40.3078 56.9232 40.3078 56.9232C42.1539 55.6924 42.4616 54.4616 41.5386 52.3078C41.2309 51.3847 42.1539 50.1539 42.4616 49.2309C42.4616 48.9232 42.4616 48.9232 42.4616 48.3078C41.2309 49.2309 40.0001 49.8463 39.077 50.4616C38.1539 51.3847 37.5386 51.077 36.9232 50.4616Z" fill="#23201F"/>
<path d="M59.3853 43.0773C58.7699 48.9235 57.5391 54.462 54.7699 59.6927C54.4622 60.3081 53.8468 60.9235 53.2314 61.5389C52.6161 62.1543 51.0776 62.1543 50.4622 61.2312C50.1545 60.3081 50.1545 59.385 49.2314 58.7697C49.2314 58.7697 49.2314 58.462 49.2314 58.1543C51.693 57.5389 49.5391 56.9235 49.5391 56.3081C49.2314 55.0773 49.8468 53.8466 49.8468 52.6158C49.8468 51.0773 50.4622 49.2312 51.0776 47.6927C51.3853 47.0773 50.4622 44.9235 52.6161 45.5389C52.6161 44.9235 52.3084 44.0004 52.6161 43.385C52.9238 43.0773 52.6161 42.462 53.2314 42.7697C53.5391 43.0773 53.8468 43.0773 54.1545 42.7697C54.4622 42.462 53.5391 42.462 53.5391 42.1543C53.5391 41.2312 55.3853 39.6927 56.0007 39.6927C57.5391 39.385 59.693 41.5389 59.3853 43.0773Z" fill="#23201F"/>
<path d="M78.769 61.5386C75.9998 61.2309 76.6151 63.6925 75.6921 64.9232C75.0767 64.6155 75.3844 63.6925 74.4613 63.6925C73.2305 63.6925 72.6151 63.0771 72.6151 61.5386C72.6151 61.2309 72.3075 60.9232 71.9998 60.9232C71.6921 60.9232 71.3844 60.6155 71.3844 60.6155C72.9228 59.0771 70.1536 57.2309 71.9998 56.0002C71.0767 55.0771 71.3844 54.154 72.3075 53.5386C72.6151 53.2309 72.3075 52.9232 71.9998 52.6155C71.3844 52.0002 71.0767 51.0771 71.3844 50.154C71.9998 48.3078 71.3844 46.4617 72.9228 44.6155C73.5382 44.0002 73.8459 43.3848 74.4613 43.3848C75.3844 43.3848 76.6151 43.3848 77.2305 44.6155C77.5382 45.5386 77.8459 46.154 78.769 46.7694C79.3844 47.3848 79.3844 48.0001 78.4613 48.6155C78.1536 48.6155 78.1536 48.9232 78.1536 48.9232C78.1536 50.154 78.1536 51.6925 78.1536 52.9232C78.1536 54.7694 78.4613 56.6155 77.8459 58.4617C77.2305 59.6925 78.1536 60.6155 78.769 61.5386Z" fill="#23201F"/>
<path d="M125.847 64.9234C126.462 64.0003 127.077 64.308 127.693 64.9234C128.616 66.1542 127.693 67.3849 127.385 68.308C126.77 69.5388 126.154 68.6157 125.539 68.6157C125.231 68.6157 124.308 68.0003 124.616 68.9234C124.616 69.5388 124.308 69.8465 123.693 69.8465C122.77 70.1542 123.077 69.2311 123.077 68.9234C122.77 68.308 122.154 68.9234 121.847 68.308C122.462 68.0003 122.77 67.6926 123.693 67.6926C126.154 68.0003 126.77 67.6926 125.847 64.9234Z" fill="#23201F"/>
<path d="M69.5385 86.4615C69.2308 85.8462 69.5385 84.6154 68 84C67.3847 83.6923 67.3847 83.3846 67.6923 83.0769C68.3077 82.4615 68.9231 81.8462 69.5385 81.2308C69.8462 80.9231 69.8462 80.9231 70.1539 81.2308C71.6923 83.0769 72.6154 84.9231 72 87.3846C72 88 71.077 88.6154 70.4616 88.6154C69.8462 88.3077 69.5385 87.6923 69.5385 86.4615Z" fill="#23201F"/>
<path d="M51.0772 82.1543C53.231 82.1543 53.8464 83.0774 53.231 84.9235C52.9233 85.5389 53.5387 86.1543 53.231 87.0774C52.9233 88.0005 52.308 88.0005 51.6926 88.0005C51.0772 88.0005 51.3849 87.3851 51.0772 87.0774C50.1541 85.8466 50.7695 84.3082 50.1541 83.0774C49.5387 81.8466 50.4618 82.1543 51.0772 82.1543Z" fill="#23201F"/>
</g>
<defs>
<clipPath id="clip0_444_1989">
<rect width="128" height="128" fill="white"/>
</clipPath>
</defs>
</svg>
