<svg width="128" height="128" viewBox="0 0 128 128" fill="none" xmlns="http://www.w3.org/2000/svg">
<path d="M38.5381 101.232C42.0643 101.937 45.5904 102.642 49.1166 103.7C52.9954 105.11 56.1689 107.226 58.2846 110.4C60.0477 113.573 62.516 116.394 63.2213 119.92C63.9265 119.568 64.9844 119.568 65.6896 119.215C65.337 118.862 65.337 118.862 64.9844 118.862C64.2791 118.862 63.5739 118.862 63.9265 118.157C63.9265 117.452 64.6318 117.452 64.9844 117.452C66.3948 117.805 67.1001 117.099 66.0422 115.689C66.7475 115.336 67.1001 115.689 67.4527 116.041C68.1579 116.747 67.4527 116.394 67.1001 116.747C66.7475 117.452 67.1001 117.805 67.1001 117.805C67.4527 117.805 67.8053 117.805 68.1579 117.805C70.2736 115.336 72.7419 116.042 75.2103 117.452C76.2681 118.157 76.9734 117.805 77.326 116.747C78.3838 112.868 80.4995 109.694 82.2626 106.521C83.3205 104.758 84.0257 104.405 85.7888 105.11C85.0835 102.995 85.7888 102.289 87.5519 101.937C89.3149 101.584 90.0202 100.174 91.7833 99.4685C92.4885 99.1159 93.1937 98.7633 94.2516 98.7633C96.7199 98.058 99.5408 98.058 102.009 97.3528C103.067 97.0002 104.125 98.4106 105.535 98.058C105.888 98.058 106.593 98.4106 106.946 97.7054C107.298 97.3528 106.946 96.6476 106.241 96.2949C105.888 96.2949 105.535 95.5897 105.888 95.2371C106.241 92.7688 105.888 91.0057 103.772 89.2426C102.714 88.1847 103.067 86.4217 101.304 85.3638C102.714 85.0112 104.125 86.4217 104.477 84.306C103.067 84.306 101.657 83.9533 102.009 81.8376C102.009 81.485 101.657 81.1324 101.304 81.1324C98.8356 80.7798 98.8356 78.6641 98.1304 77.2536C97.4251 76.1958 97.7778 74.7853 96.3673 74.0801C95.6621 73.7274 96.0147 72.317 97.0725 71.9644C98.1304 71.6117 97.7778 71.2591 97.7778 70.5539C97.7778 69.496 98.1304 68.7908 99.1882 68.0856C99.8935 67.3803 100.951 67.0277 100.246 65.9699C99.8935 65.6172 100.951 65.6172 100.951 65.2646C101.657 64.2068 104.125 63.5015 100.951 62.4437C101.657 61.7385 102.362 61.3858 103.067 61.0332C103.42 60.6806 103.772 59.9754 103.067 59.6228C102.714 59.2701 101.657 59.2701 101.657 58.5649C102.009 57.5071 102.714 58.2123 103.42 57.8597C103.772 57.8597 103.772 57.5071 104.125 57.5071C104.125 57.1544 103.772 56.8018 103.067 56.8018C102.009 56.8018 102.009 56.4492 102.714 56.0966C103.42 55.3914 103.067 54.3335 103.067 53.6283C102.714 52.2178 103.42 51.1599 104.83 51.8652C105.183 51.8652 105.888 51.8652 105.888 51.5126C105.888 51.1599 105.535 51.16 105.183 51.16C104.125 51.16 104.125 50.4547 104.477 49.3969C104.83 47.9864 106.241 46.5759 105.183 44.8128C104.83 44.1076 105.535 44.1076 105.888 43.755C106.593 43.4024 107.298 43.0498 105.888 42.3445C105.535 41.9919 105.183 41.9919 105.888 41.6393L106.241 41.2867C105.535 39.5236 106.241 37.7605 106.946 35.9974C107.298 35.2922 106.946 34.2343 107.651 33.5291C108.356 32.8239 108.004 31.4134 106.593 31.4134C106.241 31.4134 105.535 31.4134 105.535 30.7082C105.888 30.0029 106.241 29.6503 106.593 29.6503C106.946 29.6503 107.298 29.6503 107.298 28.9451C107.298 27.8872 106.593 26.4768 108.709 27.182C109.062 27.182 109.414 26.8294 109.062 26.4768C108.709 26.1241 108.709 25.7715 108.356 25.0663C107.298 21.8927 109.062 19.0718 109.767 16.2509C110.119 15.193 108.709 13.7825 111.177 13.7825C110.472 12.7247 109.767 12.7247 109.062 13.0773C107.651 13.4299 108.356 12.7247 107.651 11.6668C106.593 9.19851 109.767 9.19851 109.767 7.43543C109.767 7.08281 110.472 7.78805 111.177 7.43543C111.177 6.73019 110.472 6.37758 109.767 6.02496C111.53 5.31973 112.588 3.90926 114.703 3.55664C113.293 6.02496 116.466 8.49328 112.94 9.90375C114.703 9.90375 114.351 10.609 113.998 11.6668C113.646 15.5456 112.94 19.0718 112.235 22.9506C111.53 27.8872 110.825 32.8239 110.472 37.7605C110.119 43.755 109.062 50.1021 107.651 55.744C107.298 57.8597 106.593 60.328 105.888 62.4437C104.83 67.7329 102.362 71.9644 100.246 76.5484C99.8935 77.2536 100.246 77.9588 100.951 78.3115C102.362 79.0167 102.714 80.0745 103.772 81.1324C104.477 81.8376 105.888 82.5429 106.241 83.2481C106.946 84.6586 108.709 85.3638 109.767 86.7743C110.825 88.1847 111.53 88.5374 110.825 89.9478C110.472 90.3004 110.119 90.6531 109.767 90.3004C109.062 88.89 107.298 89.5952 106.241 88.89C107.298 89.9478 107.298 92.0635 109.414 92.0635C110.472 92.0635 110.825 93.1214 111.53 93.8266C112.94 94.8845 113.646 96.6476 115.761 96.6476C116.114 96.6476 117.172 97.7054 117.172 98.4106C117.524 99.4685 116.466 99.4685 115.761 99.8211C114.351 100.526 112.94 100.526 111.882 99.4685C111.53 99.1159 110.825 98.7633 110.472 99.4685C109.767 101.232 108.004 100.174 106.593 100.879C105.888 101.232 105.183 100.879 104.477 100.526C103.067 99.8211 101.304 99.4685 99.8935 100.879C99.5408 101.232 99.1882 101.584 98.483 100.879C98.1304 100.526 97.4251 100.879 97.4251 101.232C97.0725 102.289 96.7199 103.347 96.0147 101.232H95.3094C92.8411 103.347 89.6676 103.347 86.8466 105.11C82.9678 107.931 79.7943 111.81 78.3838 116.394C77.6786 118.51 77.326 120.978 75.5629 122.389C75.2103 122.741 75.2103 123.094 75.2103 123.446C74.8576 125.915 74.1524 126.62 71.3315 126.973C69.921 126.973 68.5105 127.325 67.1001 127.678C64.9844 128.03 63.9265 126.267 61.8108 126.267C61.1056 126.267 60.0477 124.152 58.9899 123.094V122.741C60.753 121.683 59.6951 121.331 58.6373 120.978C57.5794 120.626 57.2268 119.92 58.6373 119.568C59.6951 119.215 59.3425 118.862 58.6373 118.157C57.932 117.452 55.8163 117.452 57.5794 115.689C57.5794 115.689 57.5794 115.336 57.2268 114.984C55.1111 112.515 53.7006 110.047 51.2323 107.931C49.1166 106.521 47.7061 104.758 44.8852 104.405C43.1221 104.053 41.7116 102.995 39.9486 102.642C39.9486 104.053 39.2433 102.289 38.5381 101.232Z" fill="#23201F"/>
<path d="M68.8628 54.686C69.2155 55.3912 68.8628 55.7438 68.8628 56.449C68.8628 57.1543 68.5102 57.5069 67.805 57.5069C67.4524 57.5069 66.7471 57.5069 66.7471 56.8017C66.0419 55.7438 65.3367 55.0386 63.9262 54.3333C62.5157 53.6281 63.221 51.865 63.221 50.8072C63.221 50.1019 63.5736 49.7493 62.8684 49.7493C62.1631 49.3967 61.4579 48.3388 61.8105 47.6336C62.5157 46.5758 62.5157 45.5179 61.1053 45.1653L60.7526 44.8127C59.3422 44.1074 62.8684 42.697 60.0474 41.9917C58.6369 41.6391 60.0474 39.876 60.4 38.8182C60.7526 37.7603 60.7526 37.7603 59.3422 37.4077C57.9317 37.0551 58.2843 35.9972 58.6369 35.292C58.9896 34.9394 59.3422 34.5868 58.9896 34.2342C56.5212 32.1185 58.2843 29.2975 57.5791 27.1818C56.8739 24.7135 57.2265 22.2452 55.816 20.1295C58.2843 18.719 54.7582 16.9559 56.1686 15.1928C56.8739 14.135 55.4634 13.4298 54.7582 12.7245C53.7003 12.0193 54.0529 10.9614 54.7582 10.2562C55.816 9.55096 56.1686 8.84573 55.4634 7.43526C55.1108 7.08264 55.4634 6.37741 55.816 6.02479C56.1686 5.67218 56.1686 4.96694 55.816 4.96694C55.1108 4.61433 54.7582 5.31956 54.7582 5.67218C54.7582 6.73003 54.4055 7.08264 53.7003 7.78788C53.3477 8.49311 52.9951 9.55096 52.2898 7.78788C51.9372 7.43526 51.5846 7.43526 51.232 7.78788C50.8794 8.1405 50.5268 8.49311 51.232 8.84573C52.2898 9.90358 51.9372 11.6667 52.6425 12.7245C52.2898 14.4876 51.5846 15.5455 50.8794 15.5455C48.411 15.5455 49.8215 17.3085 49.8215 18.0138C50.1741 19.7769 49.8215 20.8347 48.411 21.8926C48.0584 21.8926 47.7058 21.8926 48.0584 22.5978C49.4689 24.3609 48.0584 24.0083 47.0006 24.0083C47.7058 26.8292 45.9427 28.9449 45.2375 31.0606C44.8849 32.8237 44.1796 33.8815 42.0639 33.8815C42.4166 34.2342 42.7692 34.2342 43.1218 34.2342C43.827 34.2342 44.1796 34.2342 44.1796 34.9394C44.1796 35.6446 44.1796 36.3499 43.1218 36.3499C41.0061 36.7025 41.0061 36.7025 41.0061 38.8182C41.7113 39.1708 42.0639 37.4077 42.7692 38.4656C43.1218 39.1708 42.0639 39.5234 42.0639 39.876C42.0639 40.9339 41.7113 41.9917 40.6535 42.3444C41.7113 44.4601 39.9482 46.2231 39.9482 48.3388V48.6915C38.5378 49.3967 39.5956 50.8072 39.243 51.865C38.5378 53.2755 38.5378 55.0386 38.1852 56.449C38.1852 56.8017 38.1852 57.8595 37.1273 57.1543L36.7747 57.5069C38.5378 59.6226 36.4221 61.7383 36.4221 64.2066C36.4221 67.3802 35.3642 70.2011 34.659 73.3747C34.3064 74.7851 32.8959 75.1377 33.2485 76.5482C31.838 76.1956 31.838 75.1377 31.1328 74.4325C31.1328 74.0799 31.1328 73.7273 31.1328 73.7273C33.2485 71.6116 31.1328 69.4959 31.1328 67.3802C31.1328 66.3223 31.1328 65.2645 31.1328 64.2066C31.1328 63.1488 31.4854 62.4435 33.2485 63.5014C30.4276 61.7383 32.5433 59.27 31.838 57.8595C31.4854 57.1543 33.2485 58.5647 33.2485 57.1543C31.838 56.8017 31.838 55.0386 32.1907 53.9807C32.5433 52.2176 33.2485 50.8072 35.7168 51.5124C34.3064 50.4545 33.6011 49.7493 34.3064 48.3388C31.838 46.2231 35.0116 46.5758 35.3642 45.8705C35.3642 44.4601 32.8959 44.4601 35.3642 43.0496C36.0695 42.697 36.7747 40.5813 36.4221 39.876C35.7168 38.4656 37.1273 38.8182 37.4799 38.4656C37.8325 38.1129 37.8325 39.876 38.1852 38.4656C38.1852 38.1129 38.5378 37.0551 38.1852 37.0551C35.3642 35.9972 37.4799 34.9394 37.8325 34.5868C39.243 33.5289 39.243 32.8237 37.4799 31.7658C38.1852 31.4132 38.8904 31.4132 39.243 31.0606C39.5956 30.708 40.6535 31.7658 40.6535 30.708C40.6535 30.0028 40.6535 29.2975 39.9482 28.9449C39.5956 28.5923 39.243 28.2397 39.5956 27.5344C39.9482 27.1818 40.3009 26.8292 41.0061 27.5344C41.7113 28.2397 42.4166 28.2397 42.0639 26.8292C42.0639 26.4766 42.0639 25.7714 41.7113 25.4187C41.0061 25.0661 41.7113 26.4766 41.0061 26.124C40.6535 25.0661 41.0061 24.0083 41.7113 22.9504C42.7692 21.5399 42.4166 19.4242 43.4744 18.0138C43.827 17.3085 43.827 16.9559 44.5323 16.2507C44.8849 15.8981 46.648 15.8981 45.2375 14.4876C47.0006 14.135 44.5323 10.2562 47.7058 10.9614C47.3532 9.90358 51.232 10.6088 49.1163 8.1405C48.411 7.43526 49.1163 7.08264 49.8215 7.08264C50.5268 7.08264 50.8794 6.73003 51.5846 6.73003C49.4689 4.96694 51.9372 4.26171 52.2898 2.85124C52.2898 2.14601 52.6425 3.55647 53.3477 3.20386C53.7003 2.85124 53.3477 2.49862 53.3477 2.14601C52.9951 1.44077 53.3477 1.44077 54.0529 1.08815C54.4055 1.08815 55.1108 0.735537 55.4634 1.44077C56.8739 4.26171 58.9896 6.73003 59.3422 9.55096C59.3422 13.0771 60.0474 16.2507 60.0474 19.4242C60.0474 21.1873 60.7526 22.5978 60.7526 24.3609C61.1053 27.1818 61.8105 30.0028 62.5157 32.8237C62.8683 36.7025 63.5736 40.5813 64.6314 44.1074C65.3367 47.6336 66.7471 51.5124 68.8628 54.686Z" fill="#23201F"/>
<path d="M27.607 80.7795C29.3701 80.7795 29.0175 81.8374 28.6648 82.8952C28.3122 83.9531 25.8439 83.9531 27.2544 85.3635C27.9596 85.7162 28.6648 86.4214 29.7227 87.1266C31.1332 87.8319 33.6015 88.1845 33.9541 90.6528L34.3067 91.0054C35.7172 91.7106 35.7172 91.7106 35.0119 93.1211C37.8329 93.4737 37.8329 93.4737 36.0698 95.9421C34.6593 97.7051 34.6593 98.4104 36.775 99.4682C37.4803 99.8208 38.5381 100.173 38.5381 101.231C35.3646 103.347 33.6015 102.994 31.4858 99.8208C30.7805 98.763 30.4279 97.3525 28.6648 97.3525C27.9596 97.3525 27.9596 96.6473 28.3122 96.2947C28.6648 95.2368 28.3122 94.179 27.9596 93.4737C27.2544 92.4159 26.1965 92.7685 25.4913 93.1211C24.4334 93.1211 23.7282 92.7685 23.7282 91.358C23.023 93.8264 20.9073 92.4159 19.4968 93.1211C18.0863 93.1211 17.0285 92.4159 15.9706 93.1211C15.618 93.4737 13.8549 93.1211 13.5023 92.0633C13.1497 91.0054 12.4445 89.9476 11.3866 89.5949C10.3288 89.2423 11.7392 87.4792 12.0918 87.4792C14.2075 87.4792 15.2654 85.3635 17.0285 84.6583C18.7916 83.6005 20.5546 81.8374 22.3177 81.4848C23.7282 81.1321 25.1387 79.7217 26.9018 81.1321C26.9018 80.7795 27.2544 80.7795 27.607 80.7795ZM34.3067 95.5894C33.6015 94.5316 32.191 94.179 31.4858 93.4737C31.4858 93.4737 31.8384 92.7685 31.1332 92.7685C30.4279 92.7685 30.4279 93.4737 30.0753 93.8264C29.7227 94.179 30.0753 94.8842 30.0753 94.8842C31.8384 94.179 32.5436 96.2947 34.3067 95.5894Z" fill="#23201F"/>
<path d="M41.0068 89.2423C42.0647 87.8318 42.0647 86.4214 41.7121 85.0109C41.7121 84.6583 42.4173 84.3057 42.7699 84.3057C44.533 85.3635 45.9435 84.3057 47.7066 84.3057C52.6432 85.0109 56.8746 87.8318 61.106 90.3002C62.8691 91.358 62.8691 93.8263 61.8112 95.5894C61.4586 95.942 61.4586 96.2946 61.106 95.942C59.6955 94.5316 57.5798 95.2368 56.1694 93.8263C55.4641 93.1211 54.4063 92.0632 52.9958 92.7685H52.6432C50.5275 91.0054 47.7066 92.0632 45.5909 91.358C44.8856 91.0054 44.1804 90.6528 43.4752 90.6528C42.7699 90.6528 42.4173 87.8318 41.0068 89.9475C41.0068 89.9475 41.3595 89.5949 41.0068 89.2423Z" fill="#23201F"/>
<path d="M89.3146 92.0638C87.5515 92.7691 85.7884 93.4743 84.0253 93.4743C81.2044 93.4743 79.0887 96.2952 75.9151 96.2952C75.9151 96.2952 75.9151 96.6478 75.5625 96.6478C74.8573 98.0583 73.7994 98.4109 72.389 97.3531C71.6837 96.6479 71.6837 93.8269 72.7416 93.1217C74.5047 92.0638 75.2099 89.9481 77.3256 89.5955C79.7939 88.8903 81.557 86.0693 84.3779 87.4798C85.7884 86.0693 87.9041 88.185 89.3146 86.0693C89.3146 86.0693 89.3146 86.0693 89.6672 86.0693C90.0198 86.0693 90.7251 86.422 90.7251 86.7746C91.0777 88.185 93.8986 88.8903 92.1355 91.006C91.0777 92.0638 90.3724 92.4164 89.3146 92.0638Z" fill="#23201F"/>
<path d="M48.7639 50.1022C48.0586 49.7496 47.3534 50.4548 47.0008 49.7496C47.3534 49.0444 47.706 47.6339 48.7639 47.9865C49.8217 47.9865 48.7639 49.397 49.4691 50.1022C50.527 49.0444 51.2322 47.6339 51.2322 45.8708C51.2322 45.1656 51.2322 44.813 51.5848 44.1077C51.5848 43.4025 52.29 42.6973 52.9953 42.6973C53.7005 42.6973 53.7005 43.4025 53.7005 44.1077C53.7005 44.813 54.7584 45.8708 52.9953 45.5182C52.6427 45.5182 52.6427 45.5182 52.6427 45.8708C52.6427 46.2234 52.9953 46.5761 53.3479 46.2234C54.4057 45.5182 54.4057 46.5761 54.4057 46.9287C54.4057 47.6339 54.4057 48.6918 53.7005 49.397H53.3479C51.2322 46.9287 51.5848 49.7496 50.8796 50.4548C51.5848 51.5127 52.6427 49.397 52.9953 51.1601C53.3479 52.5705 54.0531 54.3336 52.9953 55.7441C52.29 57.1546 51.5848 58.2124 51.2322 59.9755C50.8796 61.386 50.1743 62.4438 48.4112 62.0912C47.3534 62.0912 47.706 62.4438 47.706 62.7964C47.706 64.2069 46.6482 64.9121 45.5903 65.6174C44.8851 65.97 44.1798 65.6174 43.8272 65.2648C43.4746 64.9121 43.122 63.8543 44.1798 63.5017C44.5325 63.5017 44.5325 63.1491 44.5325 62.7964C43.122 60.6807 44.5325 59.2703 45.2377 57.8598C45.9429 56.4493 45.5903 55.0389 47.0008 53.981C47.706 53.6284 47.0008 53.6284 46.6482 53.2758C45.9429 52.5705 46.2955 51.8653 46.6482 51.1601C47.3534 50.1022 47.3534 51.5127 47.706 51.5127C48.7639 51.8653 48.0586 50.4548 48.7639 50.1022Z" fill="#23201F"/>
<path d="M92.8415 72.3169C91.7836 71.9643 91.431 71.259 91.0784 70.5538C90.7258 70.2012 90.7258 69.1433 90.0206 69.1433C87.5522 67.3802 88.2575 65.2645 89.6679 63.1488C90.7258 61.3857 91.7836 59.27 93.5467 57.8596C94.9572 56.8017 94.6046 55.0386 94.9572 53.6282C95.3098 52.5703 95.6624 51.8651 96.3677 52.2177C97.0729 52.5703 98.1307 53.2756 97.7781 54.686C97.4255 55.7439 97.0729 56.8017 96.7203 58.2122C95.3098 61.3857 94.9572 64.9119 93.1941 67.7329C92.8415 68.4381 93.1941 68.7907 93.5467 69.4959C94.252 70.2012 93.8993 70.9064 93.5467 71.6116C93.8993 71.6116 93.5467 72.3169 92.8415 72.3169Z" fill="#23201F"/>
<path d="M91.7828 34.9395C92.4881 35.2922 93.1933 35.9974 92.4881 36.7026C89.6671 39.8762 88.9619 44.4602 86.4936 47.6338C86.141 47.9864 86.4936 48.6916 86.141 49.3968C85.7883 49.7495 86.141 50.4547 85.4357 50.4547C84.7305 50.4547 84.7305 49.7495 84.7305 49.3968C84.3779 46.5759 85.0831 43.755 86.4936 40.934C87.5514 39.1709 88.9619 37.7605 89.3145 35.2922C89.3145 34.2343 90.725 33.8817 91.4302 32.8238C92.1354 31.0607 93.8985 30.0029 94.2511 28.2398C94.2511 27.8872 94.9564 27.182 95.6616 27.5346C96.3668 27.8872 97.0721 28.2398 97.0721 29.2977V29.6503C94.9564 31.766 94.9564 31.766 94.2511 34.5869C93.5459 36.35 92.4881 34.5869 91.7828 34.9395Z" fill="#23201F"/>
<path d="M68.8633 55.0383C68.8633 54.333 69.2159 53.6278 69.9211 53.6278C70.6264 53.6278 71.6842 53.9804 71.3316 55.0383C71.3316 55.7435 70.979 56.4487 71.6842 56.8014C72.0368 56.8014 72.3895 57.154 72.7421 57.154C73.0947 56.8014 72.7421 56.4488 72.7421 56.4488C72.3895 55.3909 73.0947 55.3909 73.7999 55.3909C74.5052 55.7435 75.2104 55.7435 75.9156 56.0961C78.7366 57.154 80.147 56.8014 80.8523 53.6278C81.2049 51.8647 83.6732 51.8647 83.3206 49.749C83.6732 49.749 83.6732 49.749 84.0258 49.749C84.731 50.1016 84.731 50.4543 84.3784 51.1595C83.6732 52.2173 83.6732 52.9226 83.6732 53.9804C82.968 53.2752 81.9101 53.2752 81.5575 54.333C81.2049 55.3909 79.0892 56.0961 80.8523 57.5066C81.5575 58.2118 80.8523 58.9171 80.8523 58.9171C78.7366 58.5644 79.0892 61.738 76.6209 61.3854C76.2682 61.3854 76.6209 62.4432 75.563 62.7959C75.2104 60.6802 73.4473 59.9749 71.3316 59.9749C71.6842 58.5645 73.0947 58.9171 73.7999 58.5645C73.0947 57.8592 72.3895 58.2118 72.0368 58.2118C70.979 58.2118 69.9211 57.5066 70.2737 56.4488C70.2737 54.6857 69.5685 55.0383 68.8633 55.0383C68.8633 54.6857 68.8633 55.0383 68.8633 55.0383Z" fill="#23201F"/>
<path d="M99.188 19.4239C99.5406 19.0713 99.8932 18.7187 100.598 18.7187C101.656 18.7187 102.362 18.3661 100.951 17.3082C100.598 16.9556 101.304 16.603 102.009 16.603C103.067 16.603 103.419 16.603 103.772 15.5452C103.772 15.1925 103.772 14.4873 104.83 14.4873C105.888 14.4873 105.888 15.5452 106.593 15.8978C106.946 16.2504 106.593 16.9556 106.24 17.3082C104.125 19.0713 103.067 21.5396 101.656 23.6553C101.304 24.3606 100.598 25.0658 99.8932 25.4184C98.8354 25.7711 98.1302 26.1237 98.1302 27.1815C98.1302 27.8868 97.7775 27.8868 97.0723 27.8868C96.7197 27.8868 96.3671 27.8868 96.0145 27.5341C95.6618 27.1815 95.6618 26.4763 96.0145 26.1237C97.4249 25.0658 98.4828 23.6553 98.8354 21.8923C98.8354 21.8923 99.188 21.8923 99.5406 21.5396C99.8933 21.187 100.951 21.187 100.598 20.1292C100.598 19.0713 99.5406 20.1292 99.188 19.4239Z" fill="#23201F"/>
<path d="M27.607 80.7796C27.2544 80.7796 26.9018 81.1322 26.5492 80.7796C25.8439 80.0743 26.1966 79.3691 26.1966 78.3112C26.1966 77.2534 26.5492 76.9008 27.607 77.2534C28.3123 77.606 28.6649 77.606 29.3701 77.2534V76.5482C28.6649 75.8429 28.3123 75.8429 27.2544 76.5482C28.3123 75.1377 29.7227 75.1377 31.1332 75.1377C31.4858 76.1955 30.428 77.2534 30.428 78.3112C30.7806 78.6639 31.4858 78.3112 31.8384 78.3112C32.5437 78.3112 32.8963 78.6639 32.5437 79.0165C31.8384 80.0743 31.1332 81.8374 29.0175 81.1322C28.6649 80.427 28.3123 80.7796 27.607 80.7796Z" fill="#23201F"/>
<path d="M103.067 13.7826C103.773 12.3722 104.83 11.6669 106.241 12.0195C106.594 12.0195 106.946 12.3722 106.946 12.7248C105.888 14.1352 104.478 13.7826 103.067 13.7826Z" fill="#23201F"/>
<path d="M83.32 53.9805C84.7305 55.7436 82.9674 56.4488 81.9096 57.5066C80.4991 55.0383 83.32 55.0383 83.32 53.9805Z" fill="#23201F"/>
</svg>
