<svg width="128" height="128" viewBox="0 0 128 128" fill="none" xmlns="http://www.w3.org/2000/svg">
<g clip-path="url(#clip0_444_1964)">
<path d="M12.3057 59.0257C10.9793 58.6941 10.3161 58.6941 9.98446 57.6993C9.98446 57.6993 9.98446 57.3677 10.3161 57.3677C11.3109 57.0361 12.3057 57.3677 12.6373 58.0309C13.6321 59.3574 15.2902 59.3573 16.285 60.3522C16.6166 60.6838 17.2798 60.6838 17.6114 60.3522C17.943 60.0206 17.6114 59.689 17.2798 59.3574C15.9534 57.6993 14.9585 56.0413 14.6269 54.0517C14.6269 53.3884 14.2953 53.7201 13.9637 53.3884C13.3005 53.0568 12.6373 52.3936 12.6373 52.062C13.9637 50.404 11.6425 50.0724 11.6425 49.0776C11.3109 46.7563 10.3161 45.0983 9.65285 43.1087C9.65285 42.777 9.32124 41.7822 10.3161 41.4506C11.3109 41.119 11.3109 42.1138 11.9741 42.4454C11.9741 41.7822 13.3005 41.4506 12.3057 40.4558C11.6425 39.7926 10.9793 39.461 9.98446 40.4558C9.32124 41.119 8.98964 40.4558 8.65803 40.1242C8.32642 39.461 7.99482 39.1294 8.65803 38.4662C8.98964 38.1346 9.32124 38.1346 9.65285 38.1346C9.32124 36.8081 7 37.8029 7 36.1449C7 34.8185 7.99482 34.1553 7.99482 32.8289C9.65285 35.1501 11.6425 36.8081 13.6321 38.7978C15.6218 40.7874 16.9482 43.4403 19.601 45.0983C19.9326 45.4299 20.5959 46.0931 20.9275 45.4299C21.2591 44.4351 21.9223 43.4403 20.9275 42.4454C20.2642 42.1138 19.601 42.1138 20.5959 41.119C19.601 39.7926 21.5907 37.8029 19.601 36.8081C19.601 36.8081 18.9378 36.4765 19.2694 36.4765C20.9275 35.4817 19.601 34.1553 19.9326 32.8289C20.2642 32.1656 20.2642 31.834 21.5907 32.4972C22.9171 33.1605 23.5803 34.4869 24.5751 35.4817C25.9016 37.1397 25.5699 39.461 27.8912 40.4558C28.5544 40.7874 28.5544 41.7822 28.886 42.4454C29.8808 45.0983 32.5337 47.0879 32.5337 50.0724C32.5337 51.0672 33.5285 51.7304 32.8653 52.7252V53.0568C35.1865 52.7252 34.8549 55.0465 35.5181 56.0413C35.8497 56.7045 36.513 57.3677 35.8497 58.0309C35.8497 58.3625 35.8497 58.6941 35.8497 59.0257C36.8446 60.3522 36.8446 60.3522 35.1865 60.6838C37.5078 60.6838 38.8342 61.347 38.8342 63.6682C38.8342 64.9947 37.5078 63.9998 37.5078 64.6631C37.5078 65.3263 38.5026 65.3263 38.8342 66.3211C38.171 66.9843 37.5078 66.9843 37.1762 66.9843C34.8549 65.9895 35.8497 67.9791 35.1865 68.6423C34.8549 68.9739 35.1865 68.9739 35.5181 68.9739C35.8497 68.9739 36.1813 69.6371 36.513 68.9739C37.5078 67.9791 38.5026 67.3159 40.1606 67.6475C41.1554 67.9791 40.8238 66.6527 41.1554 65.6579C41.487 66.3211 42.1503 65.9895 42.4819 66.9843C42.4819 67.6475 43.4767 68.3107 44.4715 68.6423C46.4611 69.6371 49.114 69.9688 50.4404 71.9584C50.4404 72.29 50.772 72.29 51.1036 72.29C53.4249 72.6216 54.0881 74.6112 55.4145 75.9377C57.4041 77.5957 58.7306 80.2485 59.7254 82.5698C60.3886 83.8962 61.0518 85.2226 62.0466 86.5491C63.3731 88.2071 64.3679 90.5283 64.3679 92.518C64.6995 94.5076 66.3575 96.1656 65.3627 98.1553C65.0311 98.8185 66.3575 99.1501 66.3575 99.8133C66.6891 103.461 66.3575 107.109 65.0311 110.756C64.6995 111.42 63.7047 111.088 63.3731 111.751C64.6995 113.078 64.0363 113.409 62.7098 113.741C61.715 113.741 61.0518 114.072 61.0518 115.73C61.0518 118.052 58.399 119.378 56.4093 118.383C55.7461 118.052 55.4145 118.383 55.4145 118.715C54.7513 119.71 54.0881 119.71 53.0933 119.046C52.43 118.052 51.4352 117.72 50.1088 117.72C48.1192 118.052 48.7824 116.725 49.4456 115.399C46.1295 116.062 45.1347 113.078 44.1399 111.088C42.8135 108.767 40.8238 106.777 40.1606 103.793C39.829 102.798 38.171 101.803 38.171 100.477C38.171 100.145 37.8394 99.8133 37.8394 99.1501C38.171 97.8237 37.5078 97.1605 36.1813 97.4921C35.1865 97.4921 34.1917 96.8289 33.8601 96.1656C32.5337 94.176 31.2073 91.8548 29.2176 90.5283C28.5544 89.8651 27.8912 88.8703 27.5596 87.8755C27.5596 86.5491 25.2383 85.8858 26.5648 84.2278C25.2383 83.8962 25.5699 81.2434 23.5803 81.9066H23.2487C24.2435 79.2537 19.9326 77.5957 21.9223 74.2796C19.2694 75.6061 19.601 72.29 17.6114 72.29C18.2746 70.632 16.9482 69.6371 16.6166 67.9791C16.6166 66.9843 15.6218 66.3211 15.2902 65.6579C14.9585 64.9947 14.2953 64.9947 14.2953 63.9998C14.2953 63.005 13.3005 63.6682 12.6373 63.3366C12.6373 62.6734 13.9637 61.347 11.9741 61.0154C10.6477 61.0154 11.3109 59.689 12.3057 59.0257ZM38.8342 90.8599C38.8342 91.1916 38.8342 91.8548 39.1658 92.518C40.4922 95.834 41.487 99.1501 42.8135 102.466C43.1451 103.461 43.4767 105.119 44.1399 105.782C45.1347 107.109 46.1295 108.103 46.7927 109.761C48.1192 112.746 53.0933 114.404 55.7461 112.746C56.4093 112.414 57.0725 111.088 58.399 112.083L59.0622 111.751C58.0674 110.425 59.0622 110.756 60.057 110.756C60.7202 110.756 60.7202 110.425 60.7202 109.761C59.7254 106.445 60.7202 103.461 60.7202 100.145C60.7202 96.8288 61.3834 93.1812 59.0622 90.1967C58.7306 89.8651 58.7306 89.5335 59.0622 89.2019C59.3938 87.5439 58.0674 86.2175 57.7358 84.891C57.7358 84.2278 56.4093 83.5646 56.4093 82.5698C56.4093 82.2382 56.0777 81.9066 55.4145 82.2382C54.7513 82.2382 54.7513 81.9066 54.7513 81.575C53.4249 79.2537 51.4352 77.2641 49.4456 75.2744C48.1192 73.948 45.1347 74.6112 44.8031 71.9584H44.4715C42.8135 72.6216 41.487 72.29 40.1606 71.6268C39.4974 71.2952 38.8342 71.6268 39.1658 72.6216C39.1658 72.9532 39.4974 73.2848 39.1658 73.6164C37.1762 74.9428 37.5078 77.2641 37.5078 78.9221C37.8394 82.5698 37.8394 86.5491 39.4974 90.1967C39.1658 89.8651 39.1658 90.1967 38.8342 90.8599ZM27.228 50.0724C26.5648 50.404 26.2332 50.7356 26.2332 51.3988C26.2332 52.3936 27.228 52.7252 27.8912 53.3884C27.8912 53.0568 28.2228 52.7252 28.2228 52.7252C27.5596 52.062 27.228 51.0672 27.228 50.0724Z" fill="#23201F"/>
<path d="M110.461 106.777C110.792 105.119 110.792 103.793 113.114 104.124C114.108 104.124 113.445 103.13 113.445 102.798C113.114 101.472 113.114 100.808 114.108 100.477C115.767 99.8135 115.767 99.4819 114.108 98.8186C113.445 98.487 114.108 98.1554 114.108 98.1554C115.103 96.829 115.103 95.5026 115.103 94.1762C115.103 92.8497 115.103 91.5233 116.098 90.5285C116.43 90.1969 114.772 85.886 114.772 85.886C114.108 85.886 113.114 85.886 112.45 86.2176C111.124 87.544 111.456 85.886 111.124 85.5544C110.129 86.2176 109.798 87.8756 108.471 87.2124C107.145 86.5492 105.155 85.886 106.15 83.5648C104.492 84.8912 103.829 84.228 102.834 83.2332C101.507 81.5751 99.8494 80.2487 99.1862 77.9275C98.8546 77.2643 98.1914 77.5959 98.1914 77.2642C97.8598 76.9326 96.865 76.2694 98.1914 75.9378C99.1862 75.6062 98.8546 74.943 98.1914 74.2798C97.1966 73.285 95.8701 71.9585 94.5437 70.9637C95.2069 70.6321 95.8701 71.2953 96.2017 70.6321C96.5334 69.9689 95.8701 69.6373 95.5385 69.3057C95.2069 68.6425 94.8753 67.6477 93.8805 66.9845C92.8857 66.6528 93.5489 65.658 93.8805 64.9948C93.5489 64 92.8857 65.658 92.5541 64.6632C92.2225 64 93.2173 63.6684 93.5489 63.6684C94.2121 63.6684 94.8753 63.3368 95.5385 63.0052C94.5437 62.6736 93.2173 62.6736 93.5489 61.0155C92.8857 61.0155 92.5541 61.3472 92.2225 61.3472C91.5593 61.6788 91.2277 61.0155 91.2277 61.0155C92.2225 60.0207 91.2277 59.0259 90.896 58.0311C90.896 57.6995 90.5644 57.0363 91.2277 57.0363C91.5593 57.0363 92.2225 57.6995 92.5541 56.7047C92.5541 56.0415 92.2225 55.0466 91.5593 55.0466C89.9012 54.715 90.5644 53.7202 90.896 52.7254C91.5593 51.7306 91.2277 51.0674 90.5644 49.7409C91.5593 50.4041 92.2225 50.4041 92.5541 49.7409C92.8857 49.0777 92.2225 48.4145 91.5593 48.4145C91.2277 48.4145 90.896 48.4145 90.896 48.0829C89.9012 45.7617 87.58 46.0933 85.922 45.0984C85.2587 44.7668 84.9271 44.1036 84.5955 43.4404C84.2639 43.1088 84.9271 42.4456 85.2587 42.7772C86.5852 43.772 86.9168 41.7824 88.2432 42.4456C88.5748 42.4456 88.5748 42.114 88.5748 41.7824C88.5748 40.7876 88.9064 40.1244 89.5696 39.7927C89.5696 39.1295 86.5852 41.1192 88.5748 38.4663C86.9168 36.8083 88.5748 34.1554 86.5852 32.4974C85.922 31.8342 86.2536 31.5026 86.2536 30.8394C86.5852 29.1813 86.5852 27.5233 85.5904 25.8653C84.9271 24.8705 83.9323 22.8808 84.9271 21.2228C85.2587 20.5596 85.2587 20.228 84.5955 19.5648C84.2639 18.9016 83.9323 18.2383 84.5955 17.9067C85.5903 17.2435 84.9271 16.9119 84.2639 16.2487C82.9375 15.2539 82.9375 14.2591 84.5955 13.9275C86.5852 14.5907 86.5852 14.2591 86.2536 13.2642C85.922 12.601 85.922 11.9378 85.922 11.2746C85.922 10.943 86.2536 10.2798 86.5852 10.6114C87.58 11.2746 88.5748 11.2746 89.238 12.2694C89.5696 12.601 89.5696 12.9326 89.238 13.2642C88.5748 13.9275 88.5748 12.601 87.58 12.601C88.2432 14.5907 89.238 16.2487 89.9012 17.9067C90.2328 17.9067 90.2328 17.9067 90.5644 17.9067C89.9012 16.2487 90.5644 15.2539 91.5593 14.2591C92.2225 13.5959 91.8909 11.6062 91.8909 10.2798C91.8909 8.29016 92.5541 6.63212 92.5541 4.97409C92.5541 3.64767 92.5541 2.32124 92.5541 0.994819C92.5541 0.663212 92.5541 0.331606 92.5541 0C96.5334 1.65803 97.1966 5.3057 96.865 8.62176C96.5334 10.6114 98.523 11.9378 98.1914 13.9275C98.1914 14.9223 98.1914 16.2487 98.523 17.2435C99.8494 17.2435 100.513 15.9171 100.181 15.2539C99.5178 12.9326 101.176 12.9326 102.502 12.9326C101.176 12.2694 101.176 10.943 101.176 9.61658C101.176 8.62176 101.507 7.29534 102.171 6.63212C102.834 5.63731 103.497 4.64249 104.824 6.30052C103.829 6.96373 103.497 7.95855 103.829 9.28498C104.492 12.9326 104.492 16.9119 104.824 21.2228C105.487 20.228 105.155 19.2332 106.15 18.9016C106.813 19.5648 105.487 20.5596 106.813 21.2228C107.145 21.2228 106.813 21.886 106.15 21.886C105.487 21.886 104.824 22.2176 103.829 21.5544C104.16 22.8808 104.824 23.2124 105.487 23.544C105.818 23.544 106.482 23.2124 106.482 23.8756C106.482 24.5389 105.818 24.8705 105.155 24.8705C104.824 24.8705 104.16 24.8705 103.829 24.8705C103.829 25.2021 104.16 25.2021 104.16 25.5337C106.482 26.1969 107.808 28.1865 106.482 29.8446C105.487 31.171 104.492 31.8342 105.818 33.4922C106.15 33.8238 105.155 34.1554 105.155 34.487C105.155 34.8187 103.165 36.1451 105.487 35.8135C105.818 35.8135 106.482 36.4767 106.15 36.4767C105.155 36.8083 105.155 38.1347 104.492 38.4663C103.829 38.7979 103.829 39.1295 104.16 39.7927C104.492 40.7876 104.492 41.7824 105.818 42.114C106.15 42.114 105.818 44.4352 105.487 45.43C104.824 46.4249 105.487 46.7565 106.15 47.0881C108.803 48.0829 111.456 49.0777 111.456 52.7254C111.456 53.057 111.787 53.057 112.119 53.057C112.45 52.7254 112.782 52.7254 113.114 53.057C113.777 54.3834 114.772 55.3782 115.435 56.7047C115.767 57.0363 115.435 57.3679 115.103 57.6995C114.772 57.6995 114.44 57.6995 114.44 58.0311C114.44 59.3575 114.108 59.3575 112.782 60.0207C113.114 58.3627 111.787 57.3679 111.124 56.3731C110.129 55.0466 109.466 53.7202 108.471 52.7254C107.808 52.0622 107.808 50.7358 106.15 51.0674C105.487 51.399 104.492 50.0725 103.497 50.0725C101.839 49.7409 100.513 51.0674 99.1862 50.7357C98.8546 50.7357 98.8546 51.0674 98.8546 51.0674C98.523 53.7202 97.1966 56.3731 98.1914 59.0259C98.523 60.0207 97.5282 60.6839 97.5282 61.6788C97.1966 63.3368 99.1862 63.6684 99.1862 65.3264C99.1862 67.6477 101.176 69.6373 100.844 72.2902C100.844 72.9534 101.839 73.285 102.171 73.9482C102.834 75.2746 102.834 76.601 103.829 77.9275C104.16 78.5907 104.492 79.2539 105.155 79.9171C105.487 80.2487 106.15 80.5803 106.15 81.2435C106.15 82.5699 106.482 83.2332 108.14 83.2332C109.134 83.2332 109.798 83.8964 110.461 85.2228C111.456 84.8912 112.119 82.5699 113.445 84.228C113.777 84.5596 114.108 84.228 114.44 83.8964C115.103 83.2332 114.772 82.5699 114.44 81.9067C115.435 80.9119 116.098 83.2332 116.761 81.9067C117.093 81.5751 117.093 80.9119 116.761 80.9119C116.098 80.5803 115.103 80.2487 114.108 80.9119C113.445 78.5907 116.098 79.5855 116.098 78.5907C116.43 76.2694 118.088 78.9223 118.419 77.5959C118.751 76.9326 117.093 77.5959 117.756 76.601C118.088 76.2694 118.419 76.2694 119.083 76.601C120.741 77.5959 120.741 79.5855 118.751 80.2487C117.425 80.9119 117.425 81.2435 118.419 81.9067C118.751 82.2383 119.083 82.2383 118.751 82.9016C117.756 85.2228 118.751 87.2124 119.083 89.2021C119.414 91.1917 120.077 93.513 119.083 95.5026C118.419 96.4974 119.414 97.1606 119.083 98.487C118.088 101.14 116.761 103.793 115.767 106.446H115.435C117.093 108.767 114.772 108.767 113.777 109.762C112.782 110.756 113.777 111.751 112.782 112.746C109.798 115.067 107.476 118.383 103.829 120.373C100.844 122.031 98.1914 124.352 94.8753 125.347C92.5541 126.01 90.5644 127.005 88.2432 127.668C85.5903 128.332 82.6059 128.995 79.953 128.995C76.9686 128.995 73.6525 128.995 70.9997 128C68.3468 126.674 65.3624 126.342 63.0411 124.021C62.7095 123.689 62.7095 123.358 62.0463 123.689C60.7199 124.352 60.3883 122.694 59.7251 122.363C59.0618 122.031 60.7199 121.036 59.7251 120.373C60.0567 120.041 60.3883 120.041 61.0515 120.373C65.3624 123.026 70.0049 123.689 74.979 124.352C80.9479 125.016 86.2536 123.689 91.8909 122.031C95.8701 121.036 98.8546 118.715 101.839 116.394C102.502 116.062 103.165 115.731 103.829 115.731C104.824 115.399 106.482 115.399 105.155 113.409C104.824 113.078 105.155 112.746 105.487 112.746C106.813 112.415 107.808 111.751 108.803 111.088C109.134 111.088 109.134 110.756 109.466 110.756C109.798 111.088 110.129 112.415 110.792 111.088C110.792 108.767 111.124 107.772 110.461 106.777ZM105.818 29.1813C105.487 28.5181 104.492 28.1865 105.818 27.8549C106.15 27.5233 106.15 27.1917 105.818 26.8601C105.487 26.5285 104.824 26.5285 104.824 27.1917C103.497 28.5181 104.16 28.8497 105.818 29.1813Z" fill="#23201F"/>
<path d="M86.2542 104.125C86.2542 103.793 86.5858 103.13 85.9226 103.13C83.6013 102.798 83.2697 100.146 81.6117 99.4823C81.2801 99.4823 80.9485 98.8191 80.9485 98.4875C81.6117 96.4979 80.2853 96.8295 79.2905 96.8295C77.3008 96.8295 76.6376 95.8346 76.6376 94.1766C76.6376 93.1818 76.6376 91.8554 75.9744 90.8606C75.6428 90.1973 76.9692 88.8709 78.2956 88.8709C79.2905 88.8709 80.9485 89.2025 79.6221 87.2129C79.2905 86.5497 79.9537 85.8865 80.2853 85.5549C81.2801 85.2232 81.6117 83.5652 83.2697 83.5652C84.2645 83.5652 84.5962 81.9072 85.591 81.244C89.2386 79.9176 93.2179 80.5808 94.2127 85.5549C95.2076 89.2025 95.5392 93.1818 96.534 96.8295C97.1972 100.146 97.1972 103.793 97.5288 107.109C97.5288 107.441 97.5288 108.104 97.5288 108.104C94.5443 108.104 97.1972 109.431 97.1972 110.094C97.5288 111.089 97.1972 112.415 96.8656 113.41C96.534 114.405 94.5443 114.405 94.2127 113.41C93.8811 112.083 92.8863 112.083 92.2231 111.42C90.5651 110.094 89.5702 108.436 88.5754 106.446C88.2438 105.451 87.9122 104.456 86.5858 104.456C85.591 105.12 86.2542 104.456 86.2542 104.125ZM92.5547 104.456C95.2076 104.125 95.5392 103.13 94.2127 101.472C94.2127 101.472 94.2127 101.14 93.8811 100.809C93.5495 96.4979 91.5599 92.5186 91.2283 88.2077C91.2283 87.2129 88.2438 85.8865 87.5806 86.5497C84.9278 88.2077 82.2749 89.8657 80.9485 92.8502L80.6169 93.1818C82.2749 94.5082 82.6065 96.4979 83.9329 97.8243C84.2645 98.4875 85.2594 97.4927 85.591 98.4875C86.2542 101.14 88.907 101.804 90.2335 103.793C91.2283 105.451 93.8811 106.778 93.2179 109.43C94.8759 107.441 94.8759 105.451 92.5547 104.456Z" fill="#23201F"/>
<path d="M48.1191 57.3678C48.7823 58.6943 49.1139 60.0207 47.1243 60.0207C46.7927 60.0207 46.7927 60.3523 46.4611 60.3523C45.7979 60.3523 45.4663 61.6787 44.8031 61.0155C44.1399 60.3523 45.1347 60.0207 45.4663 59.3575C45.4663 59.3575 45.4663 59.0259 45.4663 58.6943C44.4715 59.0259 44.1399 60.0207 43.145 60.3523C42.8134 60.3523 42.4818 61.0155 42.4818 61.3471C42.4818 62.0103 43.145 61.6787 43.4766 61.6787C44.4715 61.6787 44.8031 62.3419 45.1347 63.0052C45.4663 63.6684 44.8031 63.6684 44.8031 64C44.1399 64.3316 43.145 64.6632 42.4818 64C42.1502 63.6684 41.487 63.0052 40.4922 63.3368C41.487 62.6735 42.1502 62.0103 41.8186 61.0155C41.8186 60.6839 42.1502 60.0207 42.4818 59.3575C43.4766 57.6995 44.1399 55.7098 45.7979 54.715C49.1139 53.057 49.1139 48.7461 52.7616 47.7513C53.0932 47.7513 53.4248 47.7513 53.7564 47.7513C54.4197 47.7513 54.7513 47.7513 54.4196 46.7564C54.088 45.43 55.7461 45.43 56.7409 45.0984C57.7357 44.4352 59.0621 43.772 60.7202 44.4352C61.3834 44.7668 61.715 44.1036 62.0466 43.1088L62.3782 42.7772C64.3678 43.1088 66.3575 40.4559 68.6787 42.4456C68.6787 42.4456 69.0103 42.4456 69.3419 42.4456C72.658 40.1243 76.6373 41.1191 80.2849 41.1191C81.2798 41.1191 82.6062 41.1191 82.2746 42.7772C82.2746 43.1088 82.6062 43.4404 82.9378 43.1088C83.9326 41.1191 85.5906 42.7772 87.2487 42.4456C86.2538 43.772 85.259 44.1036 85.259 45.7616C85.259 46.4248 83.2694 46.0932 82.6062 46.0932C80.6165 45.0984 78.9585 45.0984 76.9689 45.7616C76.3057 46.0932 75.3108 46.7564 75.3108 45.0984C75.3108 44.7668 70.3368 45.0984 70.3368 45.43C70.0051 46.0932 71 46.0932 70.6684 46.7564C69.3419 46.4248 68.3471 46.7564 67.0207 47.0881C66.3575 47.0881 66.0259 47.4197 65.3627 47.0881C65.031 46.7564 64.6994 46.7564 64.3678 47.4197C63.7046 48.7461 63.0414 48.4145 62.3782 47.0881C61.3834 49.0777 60.057 50.4041 58.0673 51.0673C56.7409 51.3989 55.7461 53.057 54.088 52.7254C53.7564 54.3834 52.0984 55.0466 51.1036 56.0414C50.1088 56.7046 50.1088 58.0311 48.1191 57.3678Z" fill="#23201F"/>
<path d="M75.3105 59.689C74.6473 59.689 74.3157 59.689 73.9841 59.689C73.6525 59.689 72.9893 60.3523 72.6577 59.689C72.3261 59.0258 72.9893 58.6942 73.6525 58.3626C74.9789 57.6994 77.9634 59.3574 77.9634 61.0155C77.9634 62.0103 78.6266 62.6735 78.6266 62.6735C80.6162 62.0103 80.6162 63.6683 81.2794 64.6631C81.9427 65.3264 82.2743 65.9896 81.2794 66.9844C80.2846 67.6476 80.9478 68.3108 81.6111 68.974C81.9427 69.3056 82.2743 69.3056 82.2743 69.6372C82.6059 72.2901 82.9375 75.2745 83.2691 77.9274V78.259C83.2691 78.9222 84.5955 80.2486 83.2691 80.5802C81.9427 80.5802 79.953 81.9067 78.9582 79.5854C78.6266 79.2538 77.9634 78.9222 77.6318 78.9222C75.6421 78.5906 74.6473 76.601 73.6525 75.2745C72.9893 74.2797 71.9945 73.6165 71.6629 72.2901C71.3313 71.6269 70.6681 71.9585 70.0048 71.9585C69.3416 71.9585 68.6784 71.6269 68.6784 70.9637C68.6784 69.6372 69.3416 70.9637 69.3416 70.6321C69.6732 70.3004 69.6732 69.6372 70.3364 68.974C71.3313 67.9792 70.0048 67.9792 69.6732 67.6476C68.0152 66.6528 67.6836 65.3264 67.6836 63.6683C67.6836 63.3367 68.0152 63.0051 68.3468 62.6735C68.6784 62.3419 69.01 62.6735 69.3416 63.0051C70.0048 63.9999 70.9997 64.3315 71.3313 65.658C71.6629 66.3212 72.3261 66.9844 73.3209 66.9844C74.3157 66.9844 74.3157 65.9896 74.9789 65.658C74.9789 65.658 75.3105 65.3264 75.3105 64.9947C72.6577 62.6735 74.6473 61.3471 75.3105 59.689Z" fill="#23201F"/>
<path d="M108.14 68.3111C108.14 69.306 108.472 70.3008 107.477 70.6324C106.151 70.964 105.819 69.9692 105.156 69.306C102.503 67.3163 101.177 64.9951 100.845 61.679C100.513 59.0262 102.171 57.6997 104.493 58.6946C104.824 58.6946 105.156 59.0262 105.156 59.0262C106.482 62.3422 108.14 64.9951 108.14 68.3111Z" fill="#23201F"/>
<path d="M118.751 67.979C118.088 69.3055 119.083 71.2951 117.425 72.2899C117.093 72.2899 117.093 72.9531 117.093 72.9531C115.767 72.6215 115.435 71.2951 114.441 70.6319C114.109 70.6319 114.772 69.3055 115.435 69.6371C116.762 69.9687 116.099 68.6422 116.43 68.3106C116.762 67.979 116.099 67.6474 115.767 67.6474C115.435 67.3158 115.104 67.3158 115.104 67.979C115.104 68.3106 115.104 69.3054 114.109 68.6422C113.777 68.3106 114.109 67.3158 113.777 66.6526C115.104 66.9842 115.435 65.3262 116.762 65.3262C119.083 65.3262 118.42 66.6526 118.751 67.979Z" fill="#23201F"/>
<path d="M114.772 60.0205C116.43 60.0205 118.088 62.0101 118.088 63.6682C118.088 63.9998 117.756 64.3314 117.425 64.3314C116.761 63.9998 116.098 64.663 115.766 64.663C115.103 64.663 113.114 65.9894 114.108 63.3366C114.108 63.005 113.777 62.3418 113.777 61.6785C112.782 60.0205 113.445 60.0205 114.772 60.0205Z" fill="#23201F"/>
<path d="M118.088 72.29C118.42 72.9533 118.751 73.2849 119.083 73.9481C119.746 74.6113 119.083 74.9429 119.083 75.2745C118.751 75.6061 118.42 75.6061 118.088 75.2745C117.425 74.9429 117.756 74.6113 118.088 74.2797C118.42 73.9481 118.088 72.9533 118.088 72.29Z" fill="#23201F"/>
<path d="M110.13 106.777C110.461 107.441 110.461 107.772 109.798 108.104C109.467 108.435 108.803 108.435 108.472 108.104C108.14 108.104 107.809 107.772 107.809 107.441C107.809 106.777 108.472 106.777 108.803 106.777C109.467 106.777 109.798 106.777 110.13 106.777C110.461 106.777 110.13 106.777 110.13 106.777Z" fill="#23201F"/>
<path d="M48.4503 84.8911C48.1187 85.8859 47.7871 86.5491 48.7819 86.5491C51.4348 86.2175 51.7664 88.2072 52.7612 89.8652C55.0825 93.5129 55.4141 97.4921 53.756 101.471C53.0928 103.129 52.098 102.466 51.4348 102.135C50.1084 100.808 48.7819 98.8186 47.4555 97.4921V97.1605C44.8027 95.8341 45.7975 93.1813 45.4659 91.1916C45.4659 90.86 45.4659 90.86 45.1343 90.86C42.1498 90.5284 43.4762 88.5388 43.8079 87.2124C44.1395 85.5543 45.1343 84.2279 46.4607 83.2331C46.7923 82.9015 46.7923 82.9015 47.1239 83.2331C46.7923 84.2279 48.7819 83.8963 48.4503 84.8911Z" fill="#23201F"/>
</g>
<defs>
<clipPath id="clip0_444_1964">
<rect width="128" height="128" fill="white"/>
</clipPath>
</defs>
</svg>
