<svg width="128" height="128" viewBox="0 0 128 128" fill="none" xmlns="http://www.w3.org/2000/svg">
<path d="M101.658 81.8377C101.311 81.142 101.311 78.0116 102.006 77.316C102.702 76.6203 102.354 75.5768 102.006 75.229C101.658 73.4899 101.658 71.7507 100.963 70.3594C100.615 69.6638 99.9193 69.6638 99.2236 69.6638C98.528 69.6638 98.8758 70.3594 98.528 70.7073C98.1802 71.4029 97.8323 72.0986 97.4845 72.7942C96.441 72.4464 96.7888 71.7507 96.7888 71.0551C96.7888 70.0116 96.7888 68.9681 96.0932 68.6203C94.3541 67.5768 95.0497 66.1855 95.7454 65.142C97.1367 63.4029 96.441 61.316 98.1802 59.9247C98.528 59.9247 98.528 59.229 98.1802 58.8812C96.441 57.4899 96.441 55.4029 94.7019 53.6638C92.9628 51.9247 90.8758 51.5768 89.1367 50.5333C87.0497 49.4899 84.9628 49.8377 82.8758 50.5333C81.1367 51.229 80.0932 50.8812 81.1367 48.7942C82.1802 46.7073 81.8323 44.6203 81.4845 42.8812C81.4845 42.5333 81.4845 42.1855 81.4845 41.8377C79.3975 40.4464 78.7019 38.0116 76.6149 36.6203C75.9193 35.9247 75.5715 35.229 74.8758 34.5333C73.4845 33.142 72.0932 32.7942 70.3541 33.4899C69.3106 33.8377 68.2671 33.8377 67.5715 33.8377C66.528 33.8377 65.1367 34.1855 66.528 32.4464C66.8758 32.0986 66.528 32.0986 66.528 31.7507C65.8323 31.4029 65.4845 31.7507 65.1367 32.0986C64.7888 32.4464 64.441 32.7942 64.441 33.4899C64.441 33.8377 64.7888 33.8377 65.1367 34.1855C65.4845 34.5333 66.1802 34.5333 65.4845 35.229C65.1367 35.5768 64.441 35.9247 64.0932 35.5768C63.0497 34.8812 62.7019 35.229 62.3541 35.9247C61.6584 36.6203 60.9628 36.6203 60.2671 36.2725C58.528 35.5768 57.1367 34.8812 56.0932 32.7942C53.6584 28.6203 46.0062 26.8812 41.8323 29.6638C40.441 30.3594 39.7454 32.0986 38.7019 33.8377C36.6149 37.6638 35.9193 41.8377 34.8758 46.0116C34.528 47.4029 33.1367 47.7507 32.0932 46.7073C31.0497 45.6638 29.3106 46.3594 28.2671 45.6638C26.8758 44.6203 25.8323 44.9681 24.7889 46.0116C23.7454 47.0551 22.0062 47.0551 20.6149 48.0986C18.8758 49.4899 18.528 51.5768 16.7889 52.9681C16.0932 53.6638 16.441 54.7073 15.0497 54.3594C14.3541 54.3594 14.7019 55.0551 14.7019 55.4029C14.7019 57.142 14.3541 57.142 12.6149 57.4899C11.5715 57.4899 11.5715 59.229 11.9193 59.5768C12.6149 60.6203 12.2671 61.316 11.9193 62.0116C11.5715 63.7507 11.2236 65.142 13.6584 65.4899C14.3541 65.4899 15.3975 66.5334 16.441 67.5768C17.4845 68.6203 16.7889 69.6638 16.0932 70.3594C15.7454 70.7073 16.441 71.0551 16.441 71.4029C16.441 72.0986 16.0932 73.4899 15.0497 72.7942C13.6584 72.0986 12.6149 73.142 12.2671 73.8377C11.2236 75.5768 9.83233 76.9681 8.44103 78.7073C7.74538 79.4029 7.04972 79.7507 5.65842 79.0551C6.7019 80.7942 6.35407 81.8377 5.31059 82.8812C2.52798 86.7073 3.91929 91.9247 7.04972 94.3594C8.78885 95.7507 10.8758 96.7942 12.2671 98.8812C12.6149 99.229 12.9628 99.229 13.3106 98.8812C15.0497 96.7942 17.8323 98.1855 19.9193 97.4899C20.2671 97.4899 20.9628 97.4899 21.3106 97.4899C21.6584 97.4899 22.0062 96.4464 22.3541 97.4899C22.7019 98.1855 22.7019 98.5333 22.7019 99.229C22.7019 99.9247 22.0062 99.5768 21.6584 99.5768C20.9628 99.5768 19.5715 98.8812 19.9193 100.968C20.2671 102.012 18.528 102.012 17.8323 101.664C17.4845 101.316 17.1367 100.968 16.7889 101.316C12.6149 102.359 9.48451 99.9247 6.7019 97.4899C4.26711 95.4029 2.87581 92.6203 1.48451 89.4899C1.13668 88.4464 0.441028 87.4029 1.83233 86.7073C2.52798 86.3594 2.52798 86.0116 1.83233 85.316C1.13668 84.2725 1.13668 83.229 2.52798 82.5333C3.22364 82.1855 3.57146 81.142 3.22364 80.4464C2.18016 79.4029 2.87581 79.4029 3.57146 78.7073C4.26712 77.6638 4.61494 76.6203 6.00625 76.2725C6.35407 75.5768 7.74538 74.5334 6.7019 72.7942C6.00625 72.0986 7.74538 71.4029 8.44103 71.4029C9.48451 71.0551 9.83233 70.7073 9.13668 70.0116C8.78885 69.316 8.78885 68.9681 9.13668 68.2725C9.48451 67.5768 9.13668 67.229 8.78885 66.8812C6.35407 65.142 5.65842 60.9681 6.7019 58.1855C7.04972 57.142 7.74538 56.0986 7.39755 54.3594C7.04972 52.9681 8.44103 50.1855 9.48451 49.4899C11.2236 48.7942 10.8758 47.0551 12.6149 46.7073L12.9628 46.3594C15.3975 47.0551 15.7454 44.2725 17.4845 44.2725C18.1802 44.2725 19.2236 43.9247 19.2236 42.5333L19.5715 42.1855C20.9628 43.5768 22.3541 41.8377 24.441 41.8377C22.7019 40.7942 21.3106 40.4464 19.9193 39.4029C19.2236 39.0551 17.4845 39.0551 18.1802 37.316C18.1802 37.316 18.1802 36.9681 17.8323 36.9681C15.7454 36.9681 16.0932 35.229 15.7454 33.8377C15.7454 33.4899 15.7454 33.142 15.7454 33.4899C14.0062 34.5333 14.0062 32.4464 12.9628 32.0986C12.6149 31.7507 11.9193 31.0551 12.6149 30.0116C12.9628 29.316 12.2671 27.9247 11.5715 27.5768C9.83233 26.5333 10.528 24.4464 10.1802 23.0551C9.83233 22.0116 10.1802 21.316 9.48451 20.2725C9.13668 19.5768 8.78885 18.1855 10.1802 17.4899C10.528 17.4899 10.8758 17.142 10.528 16.7942C9.13668 15.4029 10.8758 14.0116 10.8758 12.6203C10.8758 11.229 12.2671 9.48987 14.0062 9.14204C15.3975 8.79422 15.3975 8.44639 14.3541 7.75074C13.6584 6.70726 14.3541 6.70726 14.7019 6.35943C16.441 5.31596 20.2671 6.70726 21.3106 8.44639C22.3541 10.5333 24.0932 12.2725 25.4845 14.3594C26.8758 16.0986 27.9193 18.1855 28.9628 20.2725C30.3541 23.4029 32.0932 26.1855 34.1802 28.9681C34.8758 28.6203 34.8758 27.5768 34.8758 27.229C34.528 25.4899 35.2236 24.7942 36.9628 24.7942C38.0062 24.7942 39.7454 24.4464 39.3975 24.0986C38.3541 22.3594 40.441 22.7073 40.7889 22.7073C46.3541 22.0116 51.2236 23.4029 55.0497 27.5768C55.7454 28.2725 56.441 29.316 56.7889 29.316C58.1802 28.9681 59.9193 29.316 61.3106 28.2725C62.3541 27.5768 63.7454 27.229 64.441 27.229C67.9193 26.8812 71.0497 26.5333 74.528 27.229C75.5715 27.5768 76.2671 27.9247 76.9628 28.2725C77.6584 28.9681 78.0062 30.0116 79.3975 29.316C79.3975 29.316 80.441 30.7073 80.7888 31.4029C81.1367 32.0986 81.1367 32.0986 81.8323 32.0986C82.1802 32.0986 82.528 32.4464 82.528 32.4464C81.8323 34.1855 84.2671 34.5333 83.9193 35.9247C83.5715 37.316 85.3106 39.4029 84.9628 39.7507C83.9193 41.142 84.9628 42.5333 84.2671 43.9246C83.9193 44.9681 83.9193 46.3594 86.0062 46.0116C86.7019 46.0116 87.7454 45.6638 88.0932 47.0551C88.441 48.0986 89.1367 46.7073 89.4845 46.7073C91.2236 46.7073 92.2671 48.4464 93.3106 49.4899C94.3541 50.5333 95.7454 51.5768 96.441 52.9681C96.7888 54.0116 98.528 54.0116 98.8758 55.4029C98.8758 55.7507 99.9193 55.4029 99.9193 54.7073C99.5715 53.6638 100.963 52.9681 100.615 51.9247C100.615 51.229 100.963 51.5768 101.311 51.5768C104.093 51.5768 106.876 50.8812 109.311 50.1855C110.702 49.8377 112.441 50.1855 113.832 49.4899C114.876 49.142 116.615 50.8812 117.311 48.7942C118.702 50.5333 120.093 48.4464 121.485 49.142C122.18 49.4899 122.528 49.8377 122.18 50.8812C122.18 51.229 122.18 51.5768 122.876 51.5768C123.571 51.5768 123.571 51.229 123.224 50.5333C122.876 50.1855 123.224 49.4899 123.571 49.4899C123.919 49.142 124.267 49.4899 124.615 50.1855C124.963 50.8812 125.658 51.5768 126.354 51.9247C127.398 52.9681 127.745 57.8377 127.05 58.8812C127.05 59.229 126.702 59.5768 126.354 59.229C124.615 58.5333 123.919 59.9247 123.571 60.6203C122.876 61.6638 123.224 63.4029 121.137 63.0551L120.789 63.4029C122.18 65.8377 119.398 64.7942 118.702 65.4899C118.354 65.8377 117.311 65.8377 117.311 67.229C117.311 67.5768 116.963 67.9247 116.615 67.9247C114.876 67.9247 113.484 70.0116 111.398 69.316C110.702 71.0551 108.615 68.9681 107.919 71.0551C106.876 71.4029 107.224 69.6638 106.18 70.0116C105.137 70.7073 103.745 71.0551 103.745 72.7942C103.745 73.1421 104.093 74.1855 103.05 74.5334C103.05 74.5334 103.05 74.8812 102.702 74.8812C105.137 76.6203 102.006 78.7073 103.05 80.4464C104.093 81.8377 103.745 82.1855 101.658 81.8377ZM83.2236 41.8377C83.9193 40.4464 82.8758 39.0551 82.528 37.6638C81.4845 35.229 79.0497 34.1855 76.6149 33.142C76.9628 34.1855 76.2671 34.8812 77.6584 35.229C79.3975 35.9247 81.4845 37.6638 81.1367 40.0986C81.1367 40.7942 81.1367 41.4899 81.8323 40.7942C83.2236 40.0986 82.528 42.1855 83.2236 41.8377Z" fill="#23201F"/>
<path d="M34.5279 84.6202C33.8322 82.881 35.5714 81.4897 34.5279 79.7506C34.1801 79.0549 34.5279 78.7071 35.2235 78.3593C35.5714 78.0115 36.267 77.6636 35.9192 76.968C35.5714 76.6202 35.5714 76.2723 36.267 76.2723C38.0061 75.9245 39.3975 74.1854 41.4844 74.1854C42.1801 74.1854 43.2235 72.7941 44.6148 73.1419C44.9627 73.1419 45.6583 72.7941 46.0061 73.1419C47.0496 73.4897 47.7453 73.8376 48.7888 72.7941C49.1366 72.4462 49.8322 72.4462 50.1801 72.7941C50.8757 74.1854 51.5714 73.8375 52.6148 73.1419C53.3105 72.7941 54.0061 72.7941 54.7018 72.7941C57.4844 73.1419 59.9192 73.4897 62.7018 74.5332C64.7888 75.2289 66.8757 76.2723 67.5714 78.7071C67.9192 79.4028 68.9627 79.4028 69.3105 80.0984C69.6583 80.7941 70.7018 81.4897 69.6583 82.5332V83.2289C70.354 85.6636 69.6583 89.1419 67.2235 90.1854C66.1801 90.5332 65.1366 92.968 63.7453 90.881C63.7453 90.881 63.3975 90.881 63.3975 91.2289C61.3105 94.0115 58.1801 93.6636 55.0496 93.6636C50.8757 93.3158 47.0496 92.968 42.8757 92.2723C40.4409 91.9245 38.0061 91.2289 36.9627 88.4462C35.9192 86.3593 35.2235 85.6636 34.5279 84.6202ZM44.9627 78.7071C44.6148 78.7071 44.267 78.7071 44.267 78.7071C43.2235 78.7071 42.1801 78.7071 42.1801 80.4462C42.1801 81.1419 44.6148 83.9245 44.9627 83.9245C46.7018 83.5767 47.3975 82.1854 47.3975 80.7941C47.3975 79.4028 46.7018 78.3593 44.9627 78.7071ZM60.267 85.6636C60.9627 85.6636 62.7018 84.2723 62.7018 83.5767C62.7018 82.881 60.6148 80.7941 59.9192 80.7941C59.2235 81.1419 57.8322 80.4462 57.8322 81.8375C57.8322 83.5767 59.2235 85.3158 60.267 85.6636Z" fill="#23201F"/>
<path d="M55.0498 110.011C55.0498 109.316 54.702 108.968 54.702 108.272C54.702 107.577 53.3107 107.229 54.0064 106.533C54.702 106.185 55.7455 105.49 57.1368 106.533C58.8759 107.924 60.2672 110.011 62.0064 111.403C65.1368 113.49 68.6151 114.533 72.0933 113.837C74.8759 113.49 77.3107 113.142 79.7455 114.185C80.789 114.533 81.1368 113.49 81.8324 112.794C82.1803 112.098 82.1803 111.403 81.1368 111.403C80.4411 111.055 80.789 110.707 81.1368 110.359C81.4846 109.664 81.4846 109.316 81.4846 108.62C81.1368 106.881 82.1803 106.881 83.2238 107.229C84.6151 107.229 86.0064 109.316 85.3107 110.359C84.9629 111.403 85.6585 111.751 85.3107 112.794C84.6151 116.968 83.2237 118.011 80.0933 118.359C79.3977 118.359 78.3542 118.011 78.702 119.403C78.702 119.751 78.3542 119.751 78.0064 119.751C75.2238 120.446 72.4411 120.446 69.6585 121.142C69.3107 121.142 68.9629 121.142 68.9629 121.142C66.5281 118.359 63.0498 118.359 60.6151 115.924C59.5716 115.229 58.8759 113.49 57.8324 113.837C56.4411 113.837 56.0933 115.577 55.3977 116.62C54.702 117.316 53.6585 118.707 51.9194 118.359C51.2237 118.359 50.5281 119.055 49.8324 119.403C47.7455 119.751 45.6585 119.055 43.9194 118.359C43.2237 118.011 42.8759 117.664 42.1803 117.664C39.3977 118.011 38.3542 115.577 36.6151 114.185C36.2672 113.837 36.2672 113.49 36.2672 113.49C33.1368 113.837 33.1368 111.403 32.789 109.316C32.789 109.316 32.789 108.968 32.4411 108.968C30.0064 108.272 30.3542 105.142 28.6151 104.098C28.2672 103.751 28.2672 103.403 28.6151 102.707C28.9629 102.011 28.6151 101.316 27.9194 101.316C26.8759 101.664 26.1803 98.8809 24.789 100.62C24.789 100.62 24.0933 97.8375 24.4411 97.1418C24.0933 96.794 25.1368 96.4462 24.4411 95.4027C24.4411 95.0549 24.789 94.707 25.1368 94.707C26.1803 94.707 26.8759 95.0549 27.9194 95.0549C29.3107 95.4027 28.6151 96.4462 28.9629 97.1418C31.0498 100.272 32.4411 103.751 35.5716 106.533C38.0064 108.968 41.1368 110.359 44.2672 111.751C47.3977 113.142 50.5281 112.794 53.3107 110.011C53.6585 109.316 54.3542 110.011 55.0498 110.011Z" fill="#23201F"/>
<path d="M40.789 49.1425C40.789 48.4468 39.3977 48.7947 39.7455 47.7512C40.0934 47.0555 40.789 47.4034 41.1368 47.4034C42.5281 47.7512 43.5716 48.099 44.6151 48.099C44.9629 48.099 45.3108 48.4468 45.3108 48.7947C44.9629 50.5338 46.0064 51.9251 45.3108 54.0121C44.2673 56.7947 42.5281 59.2295 41.8325 62.0121C41.8325 62.3599 41.8325 62.3599 41.8325 62.7077C41.4847 63.7512 40.0934 64.099 40.0934 65.8381C40.0934 66.8816 38.0064 67.5773 37.3107 68.9686C37.3107 68.9686 36.9629 69.3164 36.6151 68.9686C35.5716 68.6208 35.5716 68.6208 35.2238 68.9686C33.8325 69.6642 32.789 69.3164 32.4412 67.9251C32.0934 66.8816 31.7455 66.186 31.0499 65.8381C30.3542 65.4903 30.0064 64.7947 30.3542 63.7512C31.3977 61.3164 31.0499 58.5338 33.4847 57.1425C33.8325 56.7947 34.1803 56.099 33.8325 55.4034C33.1368 54.3599 34.5281 53.6642 34.5281 53.6642C35.9194 53.6642 35.9194 52.6208 36.2673 51.5773C36.6151 50.5338 37.3108 49.8381 38.3542 50.186C39.3977 49.8381 40.0934 49.1425 40.789 49.1425Z" fill="#23201F"/>
<path d="M70.7014 62.0115C68.9623 62.3593 68.2666 62.0115 68.9623 60.2723C69.3101 59.5767 69.6579 59.2289 69.6579 58.5332C69.6579 57.8376 70.0058 57.4897 70.7014 57.1419C72.0927 56.0984 76.6145 57.1419 77.6579 58.881C79.7449 63.055 80.4405 67.2289 79.3971 72.0984C79.0492 74.1854 77.6579 75.5767 77.3101 77.3158C76.9623 78.3593 75.9188 78.0115 75.2231 78.3593C74.5275 78.7071 74.5275 78.0115 74.1797 77.3158C73.1362 75.5767 72.7884 73.4897 71.3971 72.4463C69.6579 71.4028 69.6579 69.6637 68.9623 68.2723C68.6145 67.2289 68.6144 66.881 69.6579 66.5332C70.7014 66.1854 70.3536 65.4897 69.6579 64.7941C68.2666 63.4028 68.2666 63.4028 70.0058 62.7071C70.0058 62.3593 70.3536 62.3593 70.7014 62.0115Z" fill="#23201F"/>
<path d="M101.659 81.8379C103.398 83.577 103.398 84.6205 100.615 87.0553C99.2238 88.4466 97.4847 89.4901 95.0499 89.8379C95.7456 88.7944 96.7891 87.4031 95.0499 86.7075C94.7021 86.3596 94.7021 85.664 95.0499 85.3162C95.3978 84.9683 95.7456 85.3162 96.0934 85.3162C97.4847 85.3162 99.2238 85.664 99.9195 83.577C100.267 82.5335 101.659 82.8814 101.659 81.8379Z" fill="#23201F"/>
<path d="M89.8325 87.0554C90.5282 87.4032 90.876 87.0554 91.2238 86.3597C91.5717 85.6641 92.2673 85.6641 92.963 85.6641C93.6586 86.0119 94.7021 86.0119 94.7021 87.0554C94.7021 88.0988 93.3108 88.4467 92.2673 88.4467C91.5717 88.7945 90.5282 88.4467 89.8325 88.0988C89.4847 88.0988 88.7891 87.751 88.7891 87.0554C88.7891 87.0554 89.1369 87.0554 89.8325 87.0554Z" fill="#23201F"/>
<path d="M90.1804 106.185C89.1369 105.838 88.4412 105.838 87.7456 106.533C87.3978 106.881 87.3978 106.881 87.0499 106.533C86.7021 106.185 86.7021 105.838 87.0499 105.49C87.7456 104.794 88.7891 104.446 89.4847 104.446C90.1804 104.446 89.4847 105.838 90.1804 106.185Z" fill="#23201F"/>
<path d="M89.1366 103.055C91.2236 104.446 91.5714 104.098 92.2671 100.62C92.6149 98.8809 92.6149 97.1418 91.9192 94.707C91.2236 95.7505 90.8758 96.794 89.8323 95.4027C89.4845 95.0549 89.1366 95.4027 88.7888 95.7505C88.441 96.0983 89.1366 96.4462 89.1366 96.794C89.8323 98.1853 90.5279 99.5766 89.4845 100.62C89.1366 101.316 89.8323 102.707 89.1366 103.055Z" fill="#23201F"/>
<path d="M89.4841 90.8807C90.1797 91.5764 89.8319 91.9242 89.4841 92.272C89.1363 92.6199 89.1363 93.3155 89.8319 94.0112C90.1797 94.7068 90.8754 95.4025 91.2232 95.0546C91.9189 94.7068 91.571 93.3155 91.571 92.272C91.571 91.5764 90.8754 90.5329 90.1797 89.8373C89.8319 89.4894 89.4841 89.1416 89.1363 89.1416C88.7884 89.8373 89.1363 90.5329 89.4841 90.8807Z" fill="#23201F"/>
</svg>
