<svg width="77" height="63" viewBox="0 0 77 63" fill="none" xmlns="http://www.w3.org/2000/svg">
<path d="M0 9.59316H8.46455L4.68806 31.5142H14.1944L17.9709 9.59316H26.3486L27.8679 1.1286H1.47587L0 9.59316Z" fill="#111111"/>
<path d="M30.2333 23.2233H48.8119C48.8987 22.8181 48.9711 22.4419 49.0289 22.0946C49.0868 21.7184 49.1302 21.4001 49.1592 21.1397C49.4196 19.0561 49.1736 17.2764 48.4212 15.8005C47.6978 14.2957 46.5402 13.1381 44.9486 12.3279C43.3859 11.5176 41.4325 11.1124 39.0885 11.1124C36.9181 11.1124 34.9648 11.4452 33.2284 12.1108C31.5211 12.7764 30.0886 13.7314 28.9311 14.9757C27.7735 16.2201 26.9198 17.696 26.37 19.4034C26.2542 19.7506 26.1529 20.0979 26.0661 20.4451C26.0083 20.7635 25.9504 21.1107 25.8925 21.4869C25.6031 23.5705 25.8636 25.4081 26.6738 26.9997C27.5131 28.5624 28.7864 29.7779 30.4937 30.646C32.2301 31.5142 34.3136 31.9483 36.7445 31.9483C38.5676 31.9483 40.2171 31.7023 41.693 31.2103C43.1689 30.6894 44.4711 29.9515 45.5997 28.9965C46.7573 28.0415 47.7556 26.9274 48.5949 25.6541L40.9117 24.3519C40.5933 24.7281 40.2171 25.0753 39.783 25.3937C39.349 25.683 38.857 25.9145 38.3072 26.0882C37.7863 26.2329 37.2075 26.2907 36.5709 26.2618C35.9053 26.2039 35.3844 25.9724 35.0082 25.5673C34.632 25.1332 34.386 24.5689 34.2702 23.8744C34.1834 23.1798 34.1834 22.3985 34.2702 21.5303L34.5741 20.6622C34.7477 19.8808 34.9937 19.1574 35.312 18.4918C35.6593 17.8262 36.1078 17.2908 36.6577 16.8857C37.2075 16.4516 37.8586 16.2635 38.611 16.3214C39.1609 16.3503 39.566 16.495 39.8265 16.7555C40.0869 17.0159 40.2605 17.3487 40.3474 17.7539C40.4342 18.159 40.4776 18.622 40.4776 19.1429L30.841 19.1863L30.2333 23.2233ZM41.3457 4.16716C41.201 5.41152 41.5338 6.43885 42.3441 7.24913C43.1833 8.05941 44.2251 8.46455 45.4695 8.46455C46.7139 8.46455 47.8425 8.07388 48.8553 7.29254C49.8682 6.48225 50.4325 5.4694 50.5482 4.25398C50.6929 3.00962 50.3601 1.99676 49.5498 1.21542C48.7396 0.405139 47.7122 0 46.4679 0C45.2235 0 44.0949 0.390671 43.0821 1.17201C42.0692 1.95336 41.4904 2.95174 41.3457 4.16716ZM29.9728 4.16716C29.8282 5.41152 30.1609 6.43885 30.9712 7.24913C31.8104 8.05941 32.8522 8.46455 34.0966 8.46455C35.341 8.46455 36.4696 8.07388 37.4824 7.29254C38.4953 6.48225 39.0596 5.4694 39.1753 4.25398C39.32 3.00962 38.9872 1.99676 38.177 1.21542C37.3667 0.405139 36.3393 0 35.095 0C33.8506 0 32.722 0.390671 31.7092 1.17201C30.6963 1.95336 30.1175 2.95174 29.9728 4.16716Z" fill="#111111"/>
<path d="M57.6129 41.0639L62.6916 11.5465H54.227L49.1483 41.0639H57.6129ZM76.5387 21.5303C76.7702 19.5046 76.5966 17.6815 76.0178 16.0609C75.468 14.4114 74.5854 13.0947 73.37 12.1108C72.1545 11.1269 70.6642 10.6494 68.8989 10.6784C67.5099 10.6784 66.251 10.9822 65.1224 11.5899C64.0228 12.1687 63.0678 12.9645 62.2575 13.9774C61.4472 14.9613 60.7961 16.1043 60.3042 17.4066C59.8122 18.6799 59.4794 20.04 59.3058 21.4869C59.1321 22.876 59.1177 24.2216 59.2624 25.5239C59.4071 26.7972 59.7254 27.9547 60.2173 28.9965C60.7382 30.0383 61.4617 30.8631 62.3877 31.4708C63.3427 32.0785 64.5437 32.3823 65.9906 32.3823C67.7269 32.3823 69.3475 31.9193 70.8523 30.9933C72.3571 30.0383 73.6159 28.7505 74.6288 27.13C75.6706 25.4805 76.3072 23.6139 76.5387 21.5303ZM67.7269 21.4435C67.6112 22.1091 67.3362 22.7168 66.9022 23.2667C66.4681 23.7876 65.9472 24.2072 65.3395 24.5255C64.7318 24.8438 64.0951 24.9885 63.4295 24.9596C62.9955 24.9306 62.6048 24.8438 62.2575 24.6991C61.9102 24.5255 61.6209 24.294 61.3894 24.0046C61.1868 23.6863 61.0421 23.3245 60.9553 22.9194C60.8685 22.5143 60.8685 22.0657 60.9553 21.5738C61.0421 21.0529 61.2157 20.5754 61.4762 20.1413C61.7366 19.7072 62.0694 19.331 62.4746 19.0127C62.8797 18.6944 63.2993 18.4484 63.7334 18.2747C64.1964 18.1011 64.6594 18.0288 65.1224 18.0577C65.7591 18.0866 66.28 18.2603 66.6851 18.5786C67.1192 18.868 67.4231 19.2587 67.5967 19.7506C67.7703 20.2426 67.8137 20.8069 67.7269 21.4435Z" fill="#111111"/>
<path d="M8.44432 37.4379H7.86867L7.77004 38.005L4.2974 57.9727L4.15798 58.7744H4.97168H13.0456H13.6224L13.7201 58.2058L15.1753 49.7324L20.4918 58.4464L20.6919 58.7744H21.076H30.2351H31.4502L30.8204 57.7352L24.1776 46.7746L33.7599 38.6442L35.1815 37.4379H33.3171H22.986H22.7324L22.54 37.6032L16.3442 42.9263L17.1493 38.2381L17.2867 37.4379H16.4748H8.44432ZM58.0568 35.6027L43.5098 44.3824L44.5758 38.2393L44.7149 37.4379H43.9015H35.871H35.298L35.1973 38.002L31.2927 59.8674L30.9609 61.401L31.0258 61.362L30.9825 61.6047L32.3486 60.5675L46.9465 51.7984L45.8751 57.9729L45.736 58.7744H46.5494H54.5799H55.1542L55.2539 58.2087L59.1152 36.2989L59.4372 34.7696L59.3785 34.8051L59.4226 34.5546L58.0568 35.6027Z" fill="#111111" stroke="#F1F1F1" stroke-width="1.3688"/>
</svg>
