<svg width="65" height="60" viewBox="0 0 65 60" fill="none" xmlns="http://www.w3.org/2000/svg">
<path d="M11.0463 0L0.637695 59.9523H4.1975L13.8709 4.05657H17.6629L7.98949 59.9523H11.5493L21.9192 0H11.0463Z" fill="#111111"/>
<path d="M48.2698 7.87797C48.7728 5.14215 48.5019 3.11386 47.5733 1.79312C46.7607 0.661054 45.5225 0.0478516 43.8974 0.0478516H42.6592H42.0401C40.6471 0.0478516 39.1381 0.0478516 39.1381 0.0478516L28.7295 60.0001H32.2893L34.8044 45.472H36.3521C39.8346 45.472 42.1949 42.7362 43.0848 37.8777L48.2698 7.87797ZM39.6798 37.5475C39.0607 40.8965 37.8225 41.3682 36.8165 41.3682H35.5009L41.9627 4.05725H43.4718C44.0135 4.05725 44.4778 4.19876 44.6713 4.52894C45.0582 5.00064 45.0582 6.03836 44.8647 7.54779L39.6798 37.5475Z" fill="#111111"/>
<path d="M32.2113 0C30.9344 0 29.3093 0 28.8449 0C28.7675 0 28.6902 0 28.6902 0L13.9092 59.9523H17.469L19.6745 51.1316H23.5826L22.7313 59.9523H26.2911L32.3661 0C32.3661 0 32.3273 0 32.2113 0ZM24.0082 47.1222H20.7193L28.6902 10.6131L24.0082 47.1222Z" fill="#111111"/>
<path d="M61.0767 0L51.7903 28.0658L56.6657 0H53.1059L42.6973 59.9523H46.2571L51.7129 28.5375V59.9523H55.3114V28.1601L64.9461 0H61.0767Z" fill="#111111"/>
</svg>
